<?xml version="1.0" encoding="UTF-8" standalone="no"?>
<svg
   xmlns:dc="http://purl.org/dc/elements/1.1/"
   xmlns:cc="http://creativecommons.org/ns#"
   xmlns:rdf="http://www.w3.org/1999/02/22-rdf-syntax-ns#"
   xmlns:svg="http://www.w3.org/2000/svg"
   xmlns="http://www.w3.org/2000/svg"
   viewBox="0 0 4002.6667 4002.6667"
   height="4002.6667"
   width="4002.6667"
   xml:space="preserve"
   id="svg2"
   version="1.1"><metadata
     id="metadata8"><rdf:RDF><cc:Work
         rdf:about=""><dc:format>image/svg+xml</dc:format><dc:type
           rdf:resource="http://purl.org/dc/dcmitype/StillImage" /></cc:Work></rdf:RDF></metadata><defs
     id="defs6" /><g
     transform="matrix(1.3333333,0,0,-1.3333333,0,4002.6667)"
     id="g10"><g
       transform="scale(0.1)"
       id="g12"><g
         transform="scale(1.8411)"
         id="g14"><path
           id="path16"
           style="fill:none;stroke:#000000;stroke-width:3.07928991;stroke-linecap:butt;stroke-linejoin:miter;stroke-miterlimit:22.92560005;stroke-dasharray:none;stroke-opacity:1"
           d="M 5.43152,16300 H 16300 V 5.43152 H 5.43152 Z" /></g><g
         transform="scale(1.06908)"
         id="g18"><path
           id="path20"
           style="fill:#e9e9e9;fill-opacity:1;fill-rule:evenodd;stroke:none"
           d="m 13403,15763.3 c 43.6,-14 9.9,0.7 39.8,-28.9 23.7,-23.4 79.6,-64.8 113.9,-73.5 126.7,-32.4 280.3,66.2 245.2,244.4 -20.4,103.6 -68.3,67.5 -100.6,163.2 -34.9,7.1 -131.1,128.3 -189.5,166 -80.3,51.9 -193.2,65.5 -266.9,-14.9 -193.9,-211.7 132.7,-385.3 158.1,-456.3" /></g><g
         transform="scale(1.06654)"
         id="g22"><path
           id="path24"
           style="fill:#e9e9e9;fill-opacity:1;fill-rule:evenodd;stroke:none"
           d="m 15804.4,13443.1 c 13.8,-31.4 57.6,-58.6 84.6,-85.6 57.3,-57.2 106.5,-137 219,-138 70.5,-0.7 90.1,6.5 125.6,36.6 19.5,70.5 64.4,50 65.5,161.1 0.9,83 -19.2,102.5 -59.7,149.8 -34.1,39.8 -69.8,66.4 -107.5,107.9 l -81.8,78.7 c -5.4,6.2 -18,23.3 -20,25.1 -155.6,146.9 -451.2,-53.2 -270.8,-270.3 27,-32.4 37.2,-31.2 45.1,-65.3" /></g><g
         transform="scale(1.1073)"
         id="g26"><path
           id="path28"
           style="fill:#050202;fill-opacity:1;fill-rule:evenodd;stroke:none"
           d="m 16206.7,13555.5 c 93.3,117.8 -73.4,366.4 -267.4,262.5 -98.4,-52.7 -192.5,-181.6 -258.3,-247.2 -137.5,-136.9 -8.4,-322.7 104.4,-331.7 123.9,-9.9 172.9,49.6 281.9,161.5 13.6,14 23.3,28.7 38.8,42.8 l 100.6,112.1" /></g><g
         transform="scale(1.106)"
         id="g30"><path
           id="path32"
           style="fill:#050202;fill-opacity:1;fill-rule:evenodd;stroke:none"
           d="m 13544.3,15654.6 c 0.3,9 -6.8,5.4 9.3,5.5 24.2,43.4 31.1,28.2 82.7,79.8 29.7,29.7 48,47.1 72.7,71.5 45.5,45 110,105.8 134.8,164.3 79.1,186.2 -139.1,324.3 -273.8,246 -67.8,-39.3 -101.8,-90.7 -154.4,-143.6 -90.7,-91.2 -184.5,-146.2 -159,-291.1 4.3,-25 37.3,-71.7 54.1,-89.1 66.4,-68.6 132.6,-58.2 233.6,-43.3" /></g><path
         id="path34"
         style="fill:#d4effb;fill-opacity:1;fill-rule:evenodd;stroke:none"
         d="m 8665.14,10667.6 c -33.81,14.1 -7.57,0.3 -34.64,23.1 -8.82,7.4 -13.05,13.2 -21.06,20 -39.33,33.3 -35.39,21 -39.95,19.3 -32.35,-77.4 3.51,-229.2 4.05,-253.2 4.07,-7.4 -0.93,-3.7 14.19,-20.3 l 522.1,-526.96 c 15.62,-14.96 23.85,-21.52 41.37,-38.25 l 190.57,-189.92 c 58.49,-53.17 89.09,-111.45 151.96,-157.46 44.84,-32.82 44.92,-48.93 76.31,-84.25 23.6,-26.55 48.35,-37.8 82.26,-67.66 29.58,-26.06 48.31,-51.95 73.05,-76.65 25.79,-25.76 48.47,-44.13 76.23,-73.41 l 309.82,-310.12 c 110.7,-121.05 267.3,-256.52 364.9,-364.87 3.6,-4.04 16.5,-16.6 20.5,-20.46 l 384.3,-385.38 c 31.5,-26.97 51.4,-40.88 81.1,-69.06 36.2,-34.41 152.2,-90.93 197.2,-110.12 17,-7.27 44.5,-6.29 68.8,-10.83 15.8,-2.95 35.9,-10.99 56.3,-15.24 122,-25.41 223.4,11.06 285.6,17.51 99.1,10.28 51.6,2.9 119.1,37.45 213.5,109.41 64.2,26.39 187.4,113.51 65.9,46.65 155,180 206.5,252.79 1.2,1.76 2.9,4.16 4.2,5.89 l 30.2,38.89 c 27,38.47 32.6,70.93 64.9,116.46 1.1,1.67 2.9,4.07 4.1,5.73 l 234.5,345.29 c 62.8,101.53 47.8,65.75 94.4,134.62 l 256.9,363.19 c 23.7,33.42 35.6,57.96 58.3,93.9 l 64.8,83.11 c 71.4,73.68 204.6,261.97 260.7,350.9 1.2,1.82 2.6,4.4 3.8,6.19 l 132.9,155.41 c 33,33.7 46.3,35.3 98.5,53.4 137.3,47.6 141.4,-31.7 238.7,-39.3 8.4,34.8 39.3,63.2 71,98.2 l 149,155.4 c -28.9,40.5 -79.9,127.6 -65.2,201.8 20.8,104.1 167.4,229.5 245.3,293.2 109.7,89.6 340.2,295.8 439.8,369.6 l 237,174 c 153,132 340.4,253.9 505.9,384.4 15.4,12.2 19.7,14.2 35.3,25.4 l 234.9,175.7 c 31.1,19.9 41.7,31.8 72.8,56 l 145.5,123.3 c 25.3,19.4 52.5,41.6 79.2,61.3 13.8,10.2 28.1,18.3 41.4,28.6 7.4,5.7 24.9,21.6 32.4,27.7 37.6,29.9 123.3,79.1 148.5,124.6 -11.5,31.3 -12.8,20.4 -21.7,42.6 -113.3,46.8 -72.2,154.4 -193.9,59.8 -24.1,-18.7 -39.9,-31 -62.3,-47.6 -49.6,-36.9 -79.7,-63.3 -121.4,-98.3 l -747.3,-572.8 c -33.2,-29.4 -90.5,-59.2 -129.5,-90.2 l -161.8,-119.7 c -55.1,-35.5 -28.1,-34.7 -83.1,-74.8 l -184.3,-145.8 c -112,-82.5 -201.9,-171.2 -300.9,-249.6 -15.3,-12.1 -20.3,-13.6 -34.3,-25.6 l -475.6,-454.3 c -50.8,-45.4 -425.7,-457.6 -468.1,-521.8 -94.3,-142.74 -296,-360.08 -376.8,-505.21 l -42.7,-66.75 c -123.3,-148.4 -213.9,-283.99 -320.3,-448.8 -14.2,-22.13 -25.5,-38.85 -44.9,-64.45 l -306.2,-464.42 c -16.5,-22.75 -23.4,-38.98 -44.4,-65.86 -162.5,-208.5 -179.8,-258.82 -458.9,-308.61 -107.2,-19.14 -267.7,55 -331.4,96.17 l -66.2,43.87 c -2.1,1.8 -8,7.23 -10,9.18 l -9.4,9.86 c -1.3,1.44 -3.2,3.7 -4.4,5.19 l -25.4,34.73 c -59.2,72.57 -1047.96,1047.49 -1262.2,1269.13 l -993.27,986.47 c -18.64,19 -33.67,41.6 -56.99,45.2" /><g
         transform="scale(1.26845)"
         id="g36"><path
           id="path38"
           style="fill:#d4effb;fill-opacity:1;fill-rule:evenodd;stroke:none"
           d="m 15847.1,15065.6 c -15.6,-7.7 -29.5,-30.1 -40.7,-46.1 -2.9,-4 -6.3,-9 -9.6,-14.1 -70.9,-107.9 -126.3,-216.1 -182.5,-331.1 -39.3,-80.4 -132.3,-272.7 -152.3,-343.9 l -84.7,-224 c -19.2,-49.2 -36.2,-85.5 -52.2,-128.1 -9,-24 -16.4,-44.3 -24.8,-69.4 -0.9,-2.9 -5.1,-16.6 -5.8,-18.2 -7.4,-19 -5.3,-11.4 -7.6,-16 l -109.6,-332.8 c -7.6,-18.9 -8.7,-12.2 -14.4,-32.1 -10.7,-36.6 -4.9,-34.6 -19.1,-68.6 l -50.5,-128.9 c -18.2,-46.5 -27.5,-91.1 -45.9,-135.8 -22.9,-55.8 -34.4,-77.2 -7.2,-129.3 10.4,-14.5 84.6,-89.8 111.6,-101.4 17.4,36.7 35.8,85.2 49.4,130.3 l 72.8,201.3 c 8.9,37.3 11.7,41 21.2,75.8 15.3,55.2 40.2,96.7 50.3,136.7 27.4,107.9 101.5,293.2 139.8,423.6 7.6,25.8 15.7,40 27.2,67.1 9.7,23 16,44.6 25.9,69 62.5,153.8 178,456 248.2,587.5 l 248.7,405.1 c 15,40.9 3.2,31.4 41,68.3 1.1,1.1 2.9,2.6 4,3.7 1.1,1.1 2.7,2.7 3.8,3.9 1.1,1.1 2.7,2.8 3.8,4 l 32.5,40.2 c 1.1,1.2 2.6,2.9 3.7,4.1 l 29.9,25.2 c 1.1,1 2.8,2.6 3.9,3.7 1.1,1.1 2.7,2.8 3.7,3.9 l 73.5,76.7 c 64.9,66.1 34.3,61.4 -33.4,129.4 -1.6,1.6 -6.3,6.3 -7.9,7.9 -1.2,1.1 -2.8,2.8 -4,3.9 l -336.1,341 c -32.3,-10.3 -15.5,-4.9 -31,-13.8 -30.3,-17.5 -80.1,-79.4 -107.3,-106.7 -1.6,-1.6 -6.2,-6.3 -7.8,-7.9 -7.1,-7.2 -1,-1.3 -11.8,-11.9 -12.7,-12.5 -17.8,-16.3 -29,-25.6 -18.9,-15.7 -41.6,-32.8 -61.3,-49.8 l -159.2,-123.2 c -36.4,-22.5 -70.6,-47.8 -111.6,-55.4 0.8,-22.6 4.3,-15.6 -10.5,-26.5 161.9,-7.2 394.9,-1.6 569.2,-1.6 39.5,0 125.4,4.8 161.8,-5.8 1.5,-0.4 4.8,-4.3 5.9,-2.5 1,1.7 3.9,-1.7 5.7,-2.8 -0.5,-36.2 -21.3,-43.5 -47,-70.5 l -110.6,-127 c -36.1,-29.8 -10.5,-28.3 -42.1,-51.9 -13.6,-10.1 1,0 -20,-9.6" /></g><g
         transform="scale(1.16957)"
         id="g40"><path
           id="path42"
           style="fill:#d55a5a;fill-opacity:1;fill-rule:evenodd;stroke:none"
           d="m 11461.9,13363.9 c -8.9,44.8 -0.3,-0.5 -13.9,32 -13.1,31.4 -6.7,7.5 -13.2,42.3 l 207.8,236.9 c 28.1,24 34.5,32 54.4,55.4 l 112.8,117.3 c 1.1,1.3 2.6,3.4 3.7,4.7 1,1.4 2.6,3.4 3.6,4.9 29.7,40.1 399.2,426.7 478.9,481.2 -13.4,31.3 -36.3,38.2 -44.5,70.3 -23.3,64.9 -321.8,223.6 -144.6,417.1 67.3,73.5 170.6,61 243.9,13.6 53.4,-34.5 141.4,-145.2 173.3,-151.7 35.2,-22.3 34.3,-31 60.3,-51.6 8.3,-6.6 12.6,-9 18.5,-13 46.5,34.2 60,51 98.6,86.9 48.3,44.7 62.4,46.3 82.4,62.6 30.4,24.7 9.3,-3.7 24.2,30.8 -95.5,-14 -158.1,-23.9 -220.9,41 -15.9,16.5 -47.1,60.6 -51.2,84.3 -24.1,136.9 64.6,189 150.4,275.2 49.7,50.1 81.9,98.7 146,135.9 127.4,74 333.7,-56.6 258.9,-232.7 -23.5,-55.3 -84.4,-112.8 -127.5,-155.4 -23.3,-23 -40.7,-39.5 -68.7,-67.6 -48.8,-48.7 -55.3,-34.4 -78.2,-75.4 50.3,9.1 63.6,29.9 94.7,58.9 l 586.2,481.9 583.2,322.2 c 112.3,52.7 77,26.3 146.1,29.9 l -539.8,550 c -57.9,48.2 -42.3,28.7 -185.4,-31.6 l -400.5,-183.3 c -81.3,-51.7 -165.6,-105.8 -231.8,-160.8 -35,-29.1 -75.7,-57.4 -113.1,-84.2 -15.4,-11.1 -11.5,-9.2 -24,-18.6 -64.2,-48.4 -123.5,-105.5 -200.1,-150.7 -52.3,-30.8 -113.5,-91.3 -161.4,-129 -20.8,-16.3 -29.7,-28.9 -48.7,-45 l -426.7,-360.2 c -36.2,-29.8 -65.1,-64.9 -99.4,-96.9 l -298.7,-282.9 c -111.8,-103.1 -367.2,-388.5 -471.9,-511.3 -1.1,-1.3 -2.8,-3.1 -4,-4.4 -1.1,-1.3 -2.9,-3.1 -4,-4.3 -1.2,-1.3 -3,-3.1 -4.2,-4.4 -1.2,-1.3 -3,-3.1 -4.2,-4.4 l -144.7,-163.3 c -26.4,-39.1 -35,-25 55.4,-112.7 l 383.8,-385.6 c 57.7,-53 125.1,-137.8 158.2,-154.3" /></g><g
         transform="scale(1.35216)"
         id="g44"><path
           id="path46"
           style="fill:#d55a5a;fill-opacity:1;fill-rule:evenodd;stroke:none"
           d="m 15308.9,15042.1 -27.5,39.4 c -16.5,19.6 -8.8,19.2 -26.5,40.6 l -125.1,125.5 c -42,40 -46.5,2.6 -62,74.3 l 33.4,24.7 c 5.8,5.8 7.2,7.2 14.6,14.9 l 151.2,152 c 1.1,1.1 2.6,2.6 3.7,3.7 l 140.8,140.3 c 48,48.2 53.1,62 103.6,104.3 l 37.8,31.3 c 27.2,-24.4 36,-31.6 59.1,-37.1 -11.5,32.5 -227.9,236.1 -268,275.8 -20,19.8 -258.1,267 -279.2,268.2 -20.7,-3.6 -23.3,-9.5 -36.6,-22.9 -66.9,-67.4 -469.5,-465.7 -477.9,-487.5 32.1,-25.1 60.4,-60.7 90.9,-91 30.6,-30.5 62,-65.2 93,-91.5 l 517.3,-518.6 c 18.1,-20 29,-36.7 57.4,-46.4" /></g><path
         id="path48"
         style="fill:#222223;fill-opacity:1;fill-rule:evenodd;stroke:none"
         d="m 8516.42,10834 c 60.65,-12.7 11.99,-19.9 73.58,-31.7 33.21,73.4 17.47,78.9 77.12,199.8 44.55,90.2 103.83,171.8 172.96,248 11.39,12.5 22.19,22.7 34.61,35.5 l 709.4,480.1 c 18.68,12.9 20.47,15.6 41.86,28.5 l 126.49,83.3 c 60.31,43.6 41.81,15.8 123.97,85.8 l 164.69,125.5 c 1.6,1.4 3.7,3.4 5.2,4.8 1.5,1.4 3.7,3.5 5.2,4.8 l 38.5,29.9 c 167.1,99.5 316.4,221.8 469,342.7 26.8,21.2 53.5,38.1 79.9,60.1 27.3,22.8 49.3,46 73.2,66.3 28.8,24.6 47.4,52.7 70.7,68.1 15.3,10.2 24.1,12.7 43.9,27.2 16.9,12.2 24,18.7 39,31.8 47.1,41 102.6,88.2 155.4,134.5 52.5,46.1 97.1,94.8 141.4,138.5 199.5,196.3 358.2,365.4 536.6,583.1 l 189.7,230.8 c 66.4,79 123,174 184,245.6 l 117.3,162.6 c 84.8,78.9 176.5,220.4 246.7,313.7 l 306.7,381.7 c 1.2,1.7 2.9,4.1 4.1,5.7 l 54.8,87.2 c 37.4,49.1 226.2,298 257.6,315.2 33.9,-19.5 35,-28 64.8,-58.3 71.1,-72.3 397.3,-410 450.1,-430.7 -10.7,29.6 -6.9,23.9 -30.8,51.2 -9.6,11 -7,7 -19.4,19.2 l -287.6,283.4 c -89.1,100.2 -130.5,121.8 -203.1,196.5 -20.3,20.8 -48.2,40.1 -74.6,64.9 -64,60.5 -33.2,48.1 -98.3,101 -15.3,12.5 -22.8,21.1 -36.2,34.7 -37.9,38.5 -244.4,237.2 -262,276.1 -19.6,43.3 -22.4,57.2 -71.4,65.4 53.7,-96.2 64.6,-46.3 -46.4,-192 -12.6,-16.5 -23.1,-30.8 -33.8,-47.1 -20.5,-31.3 -6.4,-16.7 -35.4,-42.7 -65.9,-59 -239,-318.6 -298.1,-393.6 l -69.9,-98.9 c -115.9,-122.3 -88.2,-123.9 -161.5,-208.1 l -270.3,-340.3 c -27.3,-33.6 -35.9,-61.3 -60.2,-90.3 -216.9,-259 -402.3,-506.3 -639.1,-750.3 l -298.8,-300.1 c -1.4,-1.5 -3.2,-4 -4.6,-5.5 l -232.9,-227.6 -647.98,-512.2 c -14.58,-11.6 -18.48,-16.6 -38.07,-31.8 l -183.97,-126.6 c -169.27,-132.1 -552.57,-363.7 -642.47,-437.3 l -201.45,-138.8 c -75.12,-58.8 -252.92,-138.6 -365.91,-273.4 l -76.96,-170.1 c -16.83,-129 -31.21,-276.9 43.5,-392.9 l 138.82,-170.7 c 21.31,-20.7 132.95,-137.1 150.41,-142.2" /><g
         transform="scale(1.19212)"
         id="g50"><path
           id="path52"
           style="fill:#222223;fill-opacity:1;fill-rule:evenodd;stroke:none"
           d="m 14046.6,16019.2 c -38.7,1.5 -117.8,-38.7 -138.6,-32.4 -4.9,1.5 -110.1,98.4 -125.2,135.7 l 415.8,145.4 c 21.4,12.2 10.2,5 22,16.8 -45.4,9.7 -27.6,6 -68.4,-10.9 l -334.2,-116.2 c -21.1,-8.4 -44,-17.9 -60,-35.1 11.9,-43.7 64.4,-74.7 113,-128.1 29.1,-32 13.2,-13.1 50.1,-34 26.3,-14.9 359.9,-346.6 398.4,-399.4 19.6,-26.8 51.5,-69 89.9,-78.1 -29.4,55.5 -61.7,44.4 -65.4,94.3 30.5,18.9 110.8,39.5 154.3,55.9 l 28.7,14.8 c 37.3,26.8 90.5,28.8 140.5,49.5 76.2,31.5 79.7,20.3 152,49.4 l 305.2,106 c 36.4,15.2 89.7,21 171.5,63.3 l 123.1,42.3 c 112.2,27.7 232.2,87.5 354.7,126.9 41.4,13.3 63.9,28.5 116.3,44.3 40.2,12.1 65.8,34.2 106.2,51.5 35.4,15.2 189,84.5 213.5,106.4 -112.4,7.9 -1312.5,12.5 -1365.6,-5 l -227.5,-76 c -2.6,-0.9 -23.9,-9.3 -29.8,-11.7 l -343,-118.1 c -50.1,-21.6 -150.1,-62.7 -197.5,-57.5" /></g><path
         id="path54"
         style="fill:#444346;fill-opacity:1;fill-rule:evenodd;stroke:none"
         d="m 8516.42,10834 c 43.69,-84 107.4,-69 148.72,-166.4 23.32,-3.6 38.35,-26.2 56.99,-45.2 l 993.27,-986.47 c 214.24,-221.64 1203,-1196.56 1262.2,-1269.13 l 25.4,-34.73 c 1.2,-1.49 3.1,-3.75 4.4,-5.19 l 9.4,-9.86 c 2,-1.95 7.9,-7.38 10,-9.18 l 66.2,-43.87 c 63.7,-41.17 224.2,-115.31 331.4,-96.17 279.1,49.79 296.4,100.11 458.9,308.61 21,26.88 27.9,43.11 44.4,65.86 l 306.2,464.42 c 19.4,25.6 30.7,42.32 44.9,64.45 106.4,164.81 197,300.4 320.3,448.8 l 42.7,66.75 c 80.8,145.13 282.5,362.47 376.8,505.21 42.4,64.2 417.3,476.4 468.1,521.8 l 475.6,454.3 c 14,12 19,13.5 34.3,25.6 99,78.4 188.9,167.1 300.9,249.6 l 184.3,145.8 c 55,40.1 28,39.3 83.1,74.8 l 161.8,119.7 c 39,31 96.3,60.8 129.5,90.2 l 747.3,572.8 c 41.7,35 71.8,61.4 121.4,98.3 22.4,16.6 38.2,28.9 62.3,47.6 121.7,94.6 80.6,-13 193.9,-59.8 -17.2,71.1 -88.8,108 -142.8,137.4 l -581.3,566.6 c -17.9,19.4 9.7,-12.3 -13.5,15.8 -27.3,32.9 -36.2,37.1 -62.7,67.5 -139.2,159.7 -273,261.1 -396.5,394.2 -149.8,161.5 -251.9,247.4 -392.4,387.8 -48.6,48.6 -83.2,92.7 -130.2,139.8 -77.4,77.4 -214.7,186.9 -205.4,305.6 2.9,37.5 22.2,105.9 59.5,134.9 74.1,57.5 -7.7,-37.6 37.2,32 l -46.7,-7.1 c -11.5,20.2 -204.5,214.7 -228.2,230.5 15.5,51.3 11,0.7 20.3,62.3 -43.8,-20.6 -14.4,2.4 -39.8,-39.7 -70.3,-116.2 -247.2,-71 -283.7,-26.1 -52.8,20.7 -379,358.4 -450.1,430.7 -29.8,30.3 -30.9,38.8 -64.8,58.3 -31.4,-17.2 -220.2,-266.1 -257.6,-315.2 l -54.8,-87.2 c -1.2,-1.6 -2.9,-4 -4.1,-5.7 l -306.7,-381.7 c -70.2,-93.3 -161.9,-234.8 -246.7,-313.7 l -117.3,-162.6 c -61,-71.6 -117.6,-166.6 -184,-245.6 l -189.7,-230.8 c -178.4,-217.7 -337.1,-386.8 -536.6,-583.1 -44.3,-43.7 -88.9,-92.4 -141.4,-138.5 -52.8,-46.3 -108.3,-93.5 -155.4,-134.5 -15,-13.1 -22.1,-19.6 -39,-31.8 -19.8,-14.5 -28.6,-17 -43.9,-27.2 -23.3,-15.4 -41.9,-43.5 -70.7,-68.1 -23.9,-20.3 -45.9,-43.5 -73.2,-66.3 -26.4,-22 -53.1,-38.9 -79.9,-60.1 -152.6,-120.9 -301.9,-243.2 -469,-342.7 l -38.5,-29.9 c -1.5,-1.3 -3.7,-3.4 -5.2,-4.8 -1.5,-1.4 -3.6,-3.4 -5.2,-4.8 l -164.69,-125.5 c -82.16,-70 -63.66,-42.2 -123.97,-85.8 l -126.49,-83.3 c -21.39,-12.9 -23.18,-15.6 -41.86,-28.5 l -709.4,-480.1 c -12.42,-12.8 -23.22,-23 -34.61,-35.5 -69.13,-76.2 -128.41,-157.8 -172.96,-248 -59.65,-120.9 -43.91,-126.4 -77.12,-199.8 -61.59,11.8 -12.93,19 -73.58,31.7" /><g
         transform="scale(1.2485)"
         id="g56"><path
           id="path58"
           style="fill:#444346;fill-opacity:1;fill-rule:evenodd;stroke:none"
           d="m 13412.4,15295.9 c 45.2,-5 140.7,34.3 188.5,54.9 l 327.5,112.7 c 5.6,2.3 26,10.3 28.5,11.2 l 217.2,72.6 c 50.7,16.7 1196.6,12.3 1303.9,4.7 -23.3,-20.8 -170,-87 -203.8,-101.5 -38.6,-16.5 -63.1,-37.7 -101.4,-49.2 -50,-15.1 -71.6,-29.6 -111,-42.3 -117,-37.6 -231.6,-94.7 -338.8,-121.2 l -117.5,-40.4 c -78.1,-40.3 -129,-46 -163.7,-60.4 l -291.5,-101.2 c -69,-27.8 -72.3,-17.1 -145.1,-47.2 -47.7,-19.8 -98.5,-21.7 -134.2,-47.3 l -27.3,-14.1 c -41.6,-15.7 -118.3,-35.3 -147.4,-53.3 3.5,-47.7 34.4,-37.1 62.5,-90.1 8.8,-15.3 63.4,-67.8 85.5,-90.4 l 243.4,-238.3 c 17.7,-14.8 29.4,-30.2 47.8,-47.7 1.3,-1.2 3.1,-2.7 4.5,-3.9 l 63.4,-64.3 c 1.2,-1.2 3,-2.8 4.3,-3.9 l 20.7,-19 c 13.9,-14.4 27.1,-33.9 45.2,-51 l 193.1,-190.9 c 17,-18.1 31.1,-29.6 48.9,-47.6 37.1,-37.5 48.3,-63.8 88.2,-94.7 62.7,-48.7 103,-107.6 142.5,-146.6 l 48.2,-48.2 c 1,-1.1 8.4,-8.8 11.8,-12.2 l 182.4,-178.1 c 26,-25.9 30,-13.4 64.4,-54.8 l 7.1,-8.9 c 1.1,-1.3 2.5,-3.2 3.6,-4.5 l 114.6,-110.1 c 1,-1.1 2.6,-2.9 3.6,-4.1 l 64.8,-87 c 27.9,-31.4 -3.8,-12.1 33.7,-21.9 -27.6,53 -15.9,74.7 7.4,131.4 18.7,45.4 28.2,90.8 46.7,137.9 l 51.2,131 c 14.5,34.6 8.6,32.5 19.4,69.8 5.9,20.1 7,13.3 14.6,32.5 l 111.5,338.2 c 2.3,4.6 0.1,-3.1 7.7,16.2 0.6,1.6 4.9,15.5 5.9,18.5 8.4,25.5 16,46.1 25.1,70.5 16.3,43.3 33.5,80.1 53.1,130.2 l 86,227.5 c 20.3,72.3 114.9,267.7 154.8,349.4 57,116.9 113.4,226.8 185.3,336.5 3.4,5.1 6.9,10.2 9.8,14.3 11.4,16.2 25.6,39 41.4,46.8 7.8,40.8 110.3,148.3 150.9,192.5 10.6,11.7 17.1,16.8 27.8,28.2 18.1,19.2 15,8.9 20.9,35 -144.4,14.8 -592,-3.2 -793.4,3.9 -350.1,12.4 -807.9,1.6 -1177.4,1.7 -260.8,0 -129.6,-9.1 -303.2,-48.3 l -252.5,-89.9 c -63.5,-23.9 -324.6,-103.5 -361.1,-133.6" /></g><g
         transform="scale(1.38098)"
         id="g60"><path
           id="path62"
           style="fill:#000000;fill-opacity:1;fill-rule:evenodd;stroke:none"
           d="m 14728.7,13816.5 -228.5,-372.1 c -64.4,-120.8 -170.5,-398.3 -227.9,-539.6 -9.1,-22.5 -14.9,-42.3 -23.8,-63.4 -10.6,-24.9 -18.1,-37.9 -25,-61.6 -35.2,-119.8 -103.3,-290 -128.4,-389.1 -9.3,-36.8 -32.2,-74.9 -46.2,-125.6 -8.8,-31.9 -11.3,-35.3 -19.5,-69.6 l -66.9,-184.9 c -12.5,-41.4 -29.4,-86 -45.4,-119.7 -24.8,10.7 -92.8,79.8 -102.5,93.2 -33.9,8.8 -5.3,-8.6 -30.5,19.7 l -58.6,78.7 c -0.9,1.1 -2.3,2.7 -3.2,3.7 l -103.6,99.5 c -1,1.2 -2.3,2.9 -3.3,4.1 l -6.4,8 c -31.1,37.5 -34.7,26.2 -58.2,49.6 l -164.9,161 c -3.1,3.1 -9.7,10 -10.7,11 l -43.5,43.6 c -35.7,35.3 -72.2,88.6 -128.9,132.5 -36.1,28 -46.2,51.7 -79.7,85.7 -16.1,16.3 -28.9,26.6 -44.3,43 l -174.6,172.5 c -16.2,15.5 -28.3,33.2 -40.7,46.2 l -18.8,17.2 c -1.1,1 -2.8,2.4 -3.9,3.5 l -57.3,58.1 c -1.2,1.1 -2.9,2.4 -4.1,3.6 -16.6,15.8 -27.2,29.7 -43.2,43.1 l -220,215.4 c -20,20.5 -69.4,67.9 -77.4,81.7 -33.2,7.9 -60.7,44.3 -77.6,67.5 -33.2,45.5 -321.2,331.9 -343.9,344.7 -31.8,18 -18.1,1.7 -43.2,29.4 -42,46 -87.3,72.8 -97.6,110.5 13.8,14.9 33.6,23.1 51.8,30.3 l 288.5,100.4 c 35.2,14.6 19.9,17.7 59,9.4 21.1,-2.7 114,31.8 143.8,40.8 l 1138.9,461.7 c 20.4,10.4 9.9,3.6 27.1,15.2 l 167.8,108.1 c 43.2,26.8 189.1,163.7 236.6,211.9 22.7,23.2 167.2,173 181.1,178.7 22.9,-2.5 22.9,-5.9 37.3,-18.8 41.1,-36.6 138.1,-148.5 197.3,-200.5 67.7,-59.6 258,-266 339.6,-341.2 l 313.4,-309 c 34.2,-41.5 13.1,-37.8 -69.2,-120.7 l -211.6,-222.6 c -44.6,-49.9 -17.9,-33.5 -49.2,-44.8 z m -32,2483.5 h 116.9 c 12.4,-1.4 21.7,-3.1 26.3,-4.6 l 25.1,-11.1 c 8.4,-3.7 8.6,-3.3 20,-9 4.4,-2.2 18.5,-9.7 23.6,-12.6 l 47.6,-39.3 c 1.5,-1.5 5.7,-5.8 7.2,-7.3 l 240.2,-237.7 c 1,-1.1 2.5,-2.6 3.6,-3.7 l 130.3,-130.3 c 1.5,-1.5 5.8,-5.7 7.3,-7.2 1.5,-1.5 5.7,-5.8 7.2,-7.3 1.1,-1 2.6,-2.5 3.6,-3.6 1.1,-1 2.6,-2.6 3.6,-3.6 l 597.5,-597.4 c 1,-1.1 2.5,-2.6 3.6,-3.6 l 7.2,-7.3 c 1.1,-1 2.6,-2.5 3.6,-3.6 l 152.1,-152.1 c 1,-1 2.6,-2.5 3.6,-3.6 l 18.2,-18 c 1,-1.1 2.6,-2.6 3.6,-3.6 l 74.8,-77.3 c 15,-14.8 14.8,-11.9 28.2,-29.8 l 41.6,-81.4 c 2.8,-7.1 1.3,4.9 5.6,-16.2 1,-5.2 1.2,-5.6 1.2,-6 v -0.1 c 0,-0.3 0,-0.6 0,-1.8 v -130 c -10.8,-76.7 -48.1,-122.6 -128.5,-203 -108.9,-108.9 -434.1,-450.7 -528.2,-521.8 -60.3,-45.5 -60.5,-34.5 -127.2,-53.9 -52.9,-15.4 -86.5,-2.7 -134.6,6.5 -27.3,5.3 -33.9,30.1 -66.3,20.7 -43.9,-29.4 -144.9,-141.4 -190.1,-186.5 -79.8,-79.8 -155.7,-153.9 -212.2,-251.2 l -109.7,-187.3 c -0.8,-1.3 -1.8,-3.2 -2.6,-4.5 l -125.5,-272.8 c -0.7,-1.7 -1.3,-3.6 -1.9,-5.4 l -71.8,-188.9 c -34.7,-86.4 -75.1,-178.6 -100.5,-268.8 l -72.1,-210.2 c -25.8,-56.1 -41.7,-128.9 -65.8,-187.7 -33.3,-81.2 -53.6,-173.2 -86.8,-253.6 l -185.3,-509.8 c -7.3,-16.9 -0.1,1.6 -7.4,-14.3 l -129,-291 c -3.1,-7.1 -2.7,-7.7 -6.2,-15.5 l -62.8,-118.2 c -7.3,-14.9 -7.1,-15 -14.7,-28.9 l -42.1,-66.4 c -0.9,-1.3 -2.1,-3 -2.9,-4.3 -43.5,-69.7 -89.8,-142.2 -143.2,-204.4 l -46.7,-62 c -1.3,-1.6 -5.3,-6.2 -6.7,-7.8 l -233.6,-302.2 c -1,-1.1 -2.4,-2.8 -3.3,-3.9 l -119.2,-141.5 c -12.1,-15.6 -24.4,-32 -38.4,-48.6 l -170,-199.26 c -9.7,-11.15 -14.6,-16.67 -23.4,-27.22 l -17.2,-19.06 c -1,-1.1 -2.5,-2.64 -3.5,-3.73 -16.7,-18.13 -28.8,-29.71 -46.3,-47.86 -18.9,-19.63 -23.6,-31.17 -43.1,-50.97 l -146.1,-150.81 c -1,-1.08 -2.5,-2.68 -3.5,-3.78 -2.5,-2.67 -6.1,-7.04 -10.3,-11.41 l -66,-64.37 c -6.9,-6.9 -7.5,-7.59 -14.4,-14.48 -56.5,-56.41 -110.7,-117.5 -171.4,-168.97 l -188.4,-173.66 c -1.1,-1.01 -2.7,-2.42 -3.9,-3.41 -10.5,-9.24 -17.4,-13.9 -27.4,-23.23 l -340.2,-297.03 c -83.8,-77.6 -228.4,-171.96 -301.9,-241.19 l -557.8,-426.98 c -7,-5.32 -8.5,-6.4 -16.6,-12.4 l -143.9,-109.55 c -19.4,-14.47 -31.4,-26.02 -48.6,-38.33 l -249.6,-192.12 c -110.1,-92.78 -222.2,-182.42 -326.8,-281.45 -73.8,-69.9 -179.9,-152.41 -285.3,-51.82 -20.9,29.32 -57.89,92.44 -47.18,146.16 15.03,75.35 121.18,166.15 177.58,212.27 79.4,64.87 246.4,214.21 318.5,267.67 l 171.6,125.98 c 110.8,95.56 246.5,183.85 366.3,278.36 11.2,8.83 14.3,10.25 25.6,18.38 l 170.1,127.21 c 22.5,14.44 30.2,23.06 52.7,40.6 l 105.4,89.28 c 18.3,14.03 37.9,30.07 57.3,44.34 10,7.4 20.3,13.24 30,20.72 5.4,4.13 18,15.66 23.5,20.04 27.2,21.71 89.3,57.28 107.5,90.26 -8.3,22.68 -9.3,14.77 -15.7,30.86 -12.5,51.47 -64.3,78.22 -103.4,99.48 l -421,410.3 c -12.9,14.03 7.1,-8.93 -9.8,11.42 -19.7,23.83 -26.2,26.88 -45.4,48.87 -100.8,115.65 -197.6,189.06 -287.1,285.48 -108.4,116.94 -182.3,179.11 -284.1,280.81 -35.2,35.2 -60.3,67.1 -94.3,101.2 -56,56 -155.5,135.3 -148.7,221.3 2.1,27.1 16,76.7 43.1,97.7 53.6,41.6 -5.6,-27.3 26.9,23.2 15.8,29.3 99.8,44.3 144.3,26.2 5.1,-2.1 47.5,-30.9 56.2,-36.9 21.9,-15.3 31.7,-29.6 48.5,-45.5 l 574.8,-576.3 c 31.1,-32.56 61.1,-62.96 94.4,-94.03 L 11790,9233.9 c 60.8,-66.85 32.2,-85.8 196.7,68.88 49.6,46.6 95.7,78.88 143.3,124.49 91.2,87.39 189.1,170.92 278.3,264.69 42.9,45.11 91.5,92 133.7,134.13 60.7,60.52 289.7,301.91 326.7,354.21 l 373.1,436.8 c 5.7,8.4 14.8,31.5 22.8,43.5 l 91.1,118.3 c 103.9,147.2 135.6,164.9 233.3,339.7 25.5,45.7 66.5,113.1 82.4,155.8 l 116.2,259.3 c 5.8,18.3 4.5,9 4.1,30.5 l -653.9,646.8 c -19,18.2 -34.9,37.1 -53.5,55.1 l -162.9,163.2 c -131.4,118 -303.2,304.9 -435.5,433.3 -37.5,36.4 -68,75.1 -106.1,110.8 l -330.7,324.6 -457.2,465.9 c -49,40.8 -35.8,24.2 -157,-26.8 l -339.2,-155.3 c -68.8,-43.8 -140.2,-89.6 -196.3,-136.1 -29.6,-24.6 -64.1,-48.6 -95.7,-71.3 -13.1,-9.4 -9.8,-7.8 -20.4,-15.8 -54.4,-41 -104.6,-89.4 -169.5,-127.6 -44.2,-26.1 -96.1,-77.3 -136.7,-109.3 -17.6,-13.8 -25.1,-24.5 -41.2,-38.1 l -361.3,-305.1 c -30.7,-25.1 -55.2,-54.9 -84.27,-82 l -252.93,-239.6 c -94.7,-87.3 -311.03,-329 -399.67,-433 -0.94,-1.1 -2.4,-2.6 -3.36,-3.7 -0.97,-1.1 -2.47,-2.6 -3.46,-3.7 -1,-1.1 -2.51,-2.6 -3.52,-3.7 -1.02,-1.1 -2.51,-2.6 -3.53,-3.7 l -122.58,-138.4 c -22.39,-33.1 -29.63,-21.1 46.95,-95.4 l 325.03,-326.6 c 48.83,-44.8 105.94,-116.7 133.97,-130.6 l 51.72,-60.2 c 84.63,-83.6 221.01,-205.8 288.85,-290.1 17,-21.1 31.5,-54.2 34.7,-84.3 5.4,-49.3 -8.2,-52.8 -18.3,-94.1 -31.8,-15 -10.5,1.7 -28.9,-28.8 -50.85,-84.2 -179.01,-51.4 -205.42,-18.9 -7.76,21.5 -4.96,17.3 -22.27,37.1 -6.96,7.9 -5.05,5 -14.1,13.9 l -208.26,205.2 c -64.46,72.6 -94.48,88.2 -147.07,142.3 -14.68,15.1 -34.9,29 -53.96,47 -46.36,43.8 -24.04,34.8 -71.21,73.1 -11.09,9.1 -16.48,15.3 -26.18,25.1 -27.48,27.9 -176.99,171.8 -189.77,200 -14.17,31.3 -16.17,41.4 -51.66,47.3 -27.04,19.1 -27.6,38.5 -73.52,55.3 -44.48,-23.4 -134.83,-180.4 -185.3,-223.5 -1.16,-1 -3.04,-2.2 -4.17,-3.1 l -18.11,-22.2 c -24.38,-44.6 -34.9,-52.3 -65.19,-88.7 l -357.68,-475.3 c -20.24,-25 -31.88,-44.5 -51.96,-70.8 l -370.41,-462.7 -452.31,-460.23 c -1.16,-0.96 -2.85,-2.3 -4,-3.26 l -18.62,-17.03 c -70.64,-76.88 -94.85,-86.86 -165.8,-152.92 -49.09,-45.7 -223.66,-167.06 -292.09,-221.7 l -205.65,-150.02 c -22.42,-17.06 -46.65,-37.01 -67.18,-55.37 -38.02,-33.98 -279.72,-179.26 -357.88,-236.19 -24.15,-17.6 -46.81,-36.78 -70.88,-51.83 L 6142.1,8796.7 c -107.49,-73.32 -260.74,-166.08 -314.53,-279.73 -6.91,-14.6 -11.72,-32.87 -18.48,-48.02 -42.77,-95.87 -22.53,-81.28 -38.86,-135.21 -13.58,-44.87 -10.88,-58.91 -9.82,-115.33 1.29,-68.45 48.79,-208.32 91.43,-266.45 52.51,-71.59 156.73,-197.85 230.13,-247.82 37.9,-25.81 80.73,-86.6 126.32,-117.64 2.95,-5.39 -0.67,-2.66 10.28,-14.71 l 378.07,-381.59 c 11.3,-10.83 17.26,-15.58 29.95,-27.7 l 138,-137.52 c 42.35,-38.5 64.51,-80.7 110.03,-114.02 32.47,-23.76 32.53,-35.43 55.26,-61.01 17.09,-19.22 35.02,-27.37 59.57,-48.99 21.42,-18.87 34.98,-37.62 52.89,-55.51 18.68,-18.64 35.11,-31.95 55.2,-53.15 l 224.37,-224.57 c 80.11,-87.65 193.54,-185.75 264.18,-264.21 2.63,-2.92 11.95,-12.02 14.88,-14.81 l 278.31,-279.06 c 22.75,-19.53 37.17,-29.61 58.68,-50.02 26.27,-24.91 110.22,-65.84 142.78,-79.73 12.34,-5.27 32.23,-4.56 49.85,-7.84 11.45,-2.14 26.02,-7.97 40.79,-11.04 88.34,-18.4 161.74,8.01 206.78,12.68 71.77,7.44 37.39,2.09 86.23,27.12 154.65,79.22 46.53,19.1 135.7,82.19 47.75,33.78 112.27,130.34 149.53,183.05 0.9,1.28 2.15,3.01 3.07,4.27 l 21.84,28.16 c 19.59,27.86 23.62,51.36 46.99,84.33 0.86,1.21 2.13,2.95 3.01,4.15 L 8994.34,6437 c 45.48,73.52 34.59,47.61 68.38,97.48 l 185.99,262.99 c 17.19,24.21 25.75,41.98 42.22,68 l 46.89,60.18 c 51.73,53.36 148.19,189.7 188.81,254.1 0.83,1.32 1.9,3.19 2.74,4.48 l 96.26,112.5 c 23.85,24.4 33.55,25.58 71.33,38.7 99.43,34.5 102.37,-22.98 172.83,-28.46 15.54,-60.46 80.82,-91.22 8.7,-212.03 -39.8,-66.67 -96.61,-128.16 -143.17,-189.92 l -464.41,-643.5 c -9.14,-13.83 -5.29,-9.6 -13.26,-22.95 -5.76,-9.66 -5.98,-9.81 -11.51,-17.45 l -332.73,-485.53 c -1.02,-1.09 -2.52,-2.62 -3.53,-3.71 l -48.4,-52.97 c -13.41,-14.34 -20.57,-19.53 -34.22,-30.96 l -93.33,-73.22 c -1.19,-0.93 -2.81,-2.31 -4.02,-3.22 l -142.59,-74.64 c -40.24,-13.36 -76.21,-33.96 -117.12,-42.19 l -54.77,-10.41 c -7.75,-2.52 -18.73,-4.53 -31.95,-6.11 h -269.62 c -7.83,0.65 -6.11,0.49 -15.18,2.99 l -10.41,4.07 c -1.7,0.59 -3.41,1.55 -5.13,2.12 -55.32,18.28 -116.17,27 -171.43,53.04 -2.02,0.95 -7.43,4.07 -9.37,5.12 -1.41,0.75 -3.1,1.97 -4.5,2.73 l -100.44,51.63 -1893.99,1856.97 c -120.06,120.05 -258.87,237.09 -346.16,385.2 l -13.75,22.46 c -0.81,1.36 -1.86,3.2 -2.67,4.57 l -32,62.13 c -17.78,37.76 -22.06,32.53 -34.59,88.51 -5.72,25.56 -0.28,8.34 -8.35,27.87 l -26.3,96.79 c -0.72,3.38 -1.15,6.82 -1.43,10.3 v 26.03 l 19.59,340.92 99.41,226.44 c 1.14,1.84 4.3,7.22 5.47,9.02 l 12.1,16.86 c 0.92,1.2 2.31,2.82 3.25,4 36.67,46.47 67.98,93.75 112.38,133.81 l 834.02,578.03 c 120.32,86.36 393.14,286.51 495.71,373.23 l 122.71,101.77 c 1.09,1.01 2.58,2.55 3.67,3.57 l 120.75,110.96 c 89.14,84.1 179.87,167.9 259.76,261.6 l 73.33,78.8 c 1.02,1 2.51,2.6 3.54,3.7 l 25.35,25.3 c 1.02,1.1 2.47,2.7 3.49,3.7 l 27.82,30.2 c 1,1.1 2.47,2.6 3.46,3.7 l 58.1,72.3 c 1.01,1.1 2.53,2.6 3.53,3.7 l 142.51,176.1 c 12.82,17 15.73,20.1 29.33,35.8 57.7,66.8 105.03,140.9 160.03,209.3 l 125.16,164.5 c 0.95,1.2 2.31,2.8 3.26,4 l 43.36,58 c 78.57,96.8 145.92,200.2 224.23,297.1 l 142.61,183.3 c 1,1.1 2.54,2.6 3.56,3.7 l 17.3,18.9 c 10.69,13.8 14.95,22.7 27.35,37.8 11.88,14.4 17.01,21.8 28.66,36.5 l 888.54,994.2 c 1.04,1 2.55,2.6 3.58,3.6 l 465.32,425.4 c 6.1,5 9.5,7.5 15.8,13.1 1.2,1 2.7,2.5 3.8,3.5 l 239.8,201.9 c 104.5,88.1 218.3,169.3 325.8,253.5 l 156.6,118.6 c 9.4,7 9.7,6.7 17.5,11.4 17.3,10.5 18.6,10.9 34.9,23.1 l 403.2,212.3 c 14.7,7.5 30.6,15.9 43.7,21.5 l 194.4,80.7 c 18.6,8.5 6.1,3.6 20.7,8.2 l 393.2,142.7 c 1.7,0.6 3.6,1.4 5.3,2 l 306.1,106.6 c 11.2,4 11.4,2.9 22.7,6.3 l 140.4,47.9 c 25.3,10.9 9.5,7.7 42.6,15.3 11.6,2.6 4.1,-0.5 17.5,4.2 2.2,0.7 8,3.6 10,4.5 l 42.5,15.4 c 18.4,5.9 0.2,0 20.6,8.4 l 497.6,183 c 22.7,8.9 4,3 19.5,9.6 1.5,0.7 3.4,1.5 5,2.1 l 83.4,32.5 c 9.4,4.3 4.5,3 19.1,9.9 l 333.6,166 c 7.6,4.7 14.6,9.1 21.9,14.3 1.3,0.9 3,2.2 4.2,3.1 l 8.2,6.2 c 1.2,0.9 2.9,2.3 4.1,3.2 46.9,33.3 94.1,56.7 136,95.7 1.1,1 2.6,2.5 3.7,3.5 l 35.1,30.2 c 85.2,81.6 161.2,164 246.1,246.2 26.6,25.8 48.4,34.2 25.9,79.9 -18.3,37.1 -28.7,107.4 -18.3,150.9 l 51.4,130.2 c 42.2,57.6 557.3,580.3 619.1,619.2 7.5,4.7 5.6,3.1 13.8,7.9 l 27.3,16.1 c 19.4,9.8 45.3,15.6 72.5,18.7 z m 589.4,-872.9 c 19.4,-3.7 326.8,-318.7 341.5,-335.9 28.5,-33.4 59.7,-58.6 87.2,-86 289.1,-287.5 276,-233.1 184.4,-324.7 l -121.4,-124.8 c -45.5,-48.3 -288.9,-290.7 -317.8,-304.3 l -181.9,179.2 c -36.5,43.4 -283,272.6 -288.8,297.5 -27.8,9.5 -38.4,25.8 -56.2,45.5 l -506.5,507.8 c -30.4,25.7 -61.1,59.6 -91,89.5 -29.8,29.7 -57.6,64.5 -89,89.1 8.2,21.3 402.4,411.3 467.9,477.4 13,13 15.6,18.8 35.9,22.4 20.6,-1.2 253.7,-243.2 273.4,-262.6 39.2,-38.9 251.1,-238.2 262.3,-270.1" /></g><g
         transform="scale(1.02758)"
         id="g64"><path
           id="path66"
           style="fill:#000000;fill-opacity:1;fill-rule:evenodd;stroke:none"
           d="m 15404,15794.4 c 39.2,30.9 65.8,-7.7 91.7,-35.8 l 278,-277 c 63.5,-62.1 18.8,-77.9 11.7,-86 -64.7,-73 -158.6,-152.6 -263.5,-155.7 -70.1,-2.1 -140.8,32.8 -192.2,80.4 -59.6,55.1 -79.6,132.2 -75.6,210.7 0.4,8.5 5.9,47.2 8.3,60.9 13.4,75.3 83.9,157.1 141.6,202.5 z m -591,-321.1 c 19.1,-115.4 29.4,-200 81.8,-287.6 38.3,-64.1 137.1,-175 196.8,-221.4 l 57,-40.6 c 70,-41.1 80.9,-49.2 151.3,-71.9 124,-39.8 264.8,-51.2 398,-12.5 171.1,49.6 261,121.7 388.8,254.3 118.5,123 210,175.2 206.5,350.6 -2,100.1 -4.7,83.6 -44.2,142.6 -81,121 -198.5,207.7 -283.2,291.6 l -258.9,275.9 c -65.2,60.9 -130.7,132.3 -233.1,137.8 -148.9,7.9 -189.2,-19.5 -271.6,-99.9 -139.5,-136 -251.5,-229.9 -336,-402.8 -24.5,-50.1 -23.5,-32.4 -29.6,-64.4 l -23.6,-251.7" /></g><g
         transform="scale(1.16861)"
         id="g68"><path
           id="path70"
           style="fill:#f36262;fill-opacity:1;fill-rule:evenodd;stroke:none"
           d="m 14815.6,12098.3 c -32.4,-27.6 -50.2,-34.1 -114.5,-33.5 -102.8,1 -147.7,73.8 -199.9,126 -24.7,24.7 -64.6,49.5 -77.3,78.1 -43,16.1 -83.1,72.8 -98.1,117.5 -27.1,80.9 -2.3,177.3 76.4,225.3 18,11 46.6,28.6 68.8,32 51.7,7.7 86.7,0.8 128.9,-22.2 37.8,-20.6 102.2,-91.5 137.4,-126.2 69.8,-69 171.1,-153.9 162.7,-258.1 -4.2,-52.2 -29.3,-114.1 -84.4,-138.9 z m 540.8,746 -95.3,-106.2 c -14.7,-13.4 -23.9,-27.3 -36.8,-40.5 -103.3,-106.1 -149.7,-162.5 -267.1,-153.1 -106.8,8.6 -229.2,184.6 -98.9,314.3 62.3,62.2 151.5,184.3 244.8,234.3 183.8,98.4 341.7,-137.2 253.3,-248.8 z m -2331.1,761.6 20.7,221.3 c 5.4,28.1 4.5,12.6 26.1,56.7 74.3,151.9 172.8,234.5 295.4,354.1 72.5,70.7 107.9,94.8 238.8,87.8 90.1,-4.7 147.6,-67.6 205,-121.1 l 227.7,-242.6 c 74.5,-73.8 177.8,-150 249,-256.4 34.7,-51.8 37.1,-37.4 38.9,-125.4 3.1,-154.2 -77.4,-200.1 -181.7,-308.3 -112.3,-116.6 -191.4,-180 -341.8,-223.6 -117.2,-34 -240.9,-24 -350,11 -61.9,19.9 -71.5,27 -133.1,63.3 l -50,35.6 c -52.5,40.8 -139.4,138.3 -173.1,194.7 -46.1,77 -55.1,151.4 -71.9,252.9 z m -197.9,1215.1 c -15.2,-0.1 -8.6,3.3 -8.8,-5.2 -14.9,-34.6 6.2,-6.2 -24.2,-30.9 -20.1,-16.3 -34.1,-17.9 -82.4,-62.7 -38.7,-35.8 -52.3,-52.7 -98.8,-86.9 -5.9,4 -10.2,6.4 -18.5,13 -26,20.6 -25.1,29.3 -60.4,51.6 29.6,-87.5 73.4,-54.4 92.1,-149.3 32.1,-163 -108.4,-253.1 -224.4,-223.6 -31.3,8 -82.5,45.9 -104.1,67.3 -27.4,27.1 3.5,13.6 -36.4,26.4 8.3,-32.1 31.1,-39 44.6,-70.4 -79.8,-54.5 -449.6,-441.5 -479.3,-481.6 -1.1,-1.4 -2.6,-3.4 -3.7,-4.8 -1,-1.4 -2.6,-3.4 -3.6,-4.7 l -112.9,-117.5 c -19.9,-23.3 -26.4,-31.4 -54.4,-55.4 l -208,-237.1 c 6.4,-34.9 0.1,-10.9 13.2,-42.4 13.5,-32.4 5,12.9 13.9,-31.9 l 61.1,-71.2 c 100,-98.7 261.2,-243.1 341.4,-342.8 20,-24.9 37.1,-64 41,-99.6 6.3,-58.3 -9.7,-62.4 -21.7,-111.2 -8,-52.7 -4.2,-9.4 -17.4,-53.3 20.3,-13.6 185.4,-180 195.3,-197.3 l 39.9,6.1 c 18.6,34.7 117.9,52.3 170.5,31 6.1,-2.5 56.2,-36.5 66.5,-43.7 25.8,-18 37.4,-34.9 57.2,-53.7 l 679.4,-681 c 36.6,-38.5 72.2,-74.4 111.5,-111.1 l 736.5,-735.2 c 71.9,-79 38.2,-101.3 232.6,81.4 58.5,55.1 113,93.3 169.2,147.2 107.8,103.2 223.5,201.9 328.9,312.7 50.7,53.4 108.1,108.8 158,158.5 71.8,71.6 342.4,356.8 386.1,418.6 l 440.9,516.2 c 6.7,10 17.4,37.3 26.9,51.4 l 107.7,139.8 c 122.7,174 160.3,194.9 275.6,401.4 30.2,54.1 78.7,133.7 97.4,184.2 l 137.4,306.4 c 6.8,21.6 5.3,10.6 4.8,36.1 l -772.7,764.3 c -22.4,21.5 -41.2,43.8 -63.2,65.1 l -192.5,192.8 c -155.3,139.5 -358.4,360.3 -514.6,512 -44.4,43.1 -80.4,88.8 -125.5,131.1 l -390.8,383.6 c -69.1,-3.6 -33.8,22.8 -146.2,-29.9 l -583.6,-322.5 -586.7,-482.3 c -31.1,-29 -44.4,-49.8 -94.8,-59" /></g><g
         transform="scale(1.27871)"
         id="g72"><path
           id="path74"
           style="fill:#bce9fc;fill-opacity:1;fill-rule:evenodd;stroke:none"
           d="m 13257.6,15182 c -11,-10.9 -0.5,-4.3 -20.5,-15.6 l -387.6,-135.6 c 14.1,-34.8 112.1,-125.1 116.7,-126.5 19.5,-5.9 93.2,31.6 129.3,30.2 35.7,29.4 290.6,107.2 352.6,130.5 l 246.5,87.7 c 169.6,38.3 41.4,47.2 296.1,47.2 360.8,0 807.8,10.4 1149.6,-1.6 196.6,-7 633.6,10.6 774.6,-3.9 -5.8,-25.4 -2.7,-15.3 -20.4,-34.2 -10.4,-11.1 -16.8,-16.1 -27.2,-27.4 -39.6,-43.3 -139.6,-148.2 -147.3,-188 20.8,9.5 6.4,-0.6 19.8,9.5 31.4,23.4 6,21.9 41.8,51.5 l 109.7,126 c 25.5,26.7 46.2,34 46.6,69.9 -1.8,1.1 -4.6,4.5 -5.6,2.7 -1.1,-1.7 -4.4,2.1 -5.9,2.6 -36.1,10.5 -121.3,5.7 -160.5,5.7 -172.9,0 -404,-5.6 -564.6,1.6 14.7,10.8 11.2,3.8 10.4,26.2 40.7,7.6 74.6,32.7 110.7,55 l 157.9,122.2 c 19.6,16.9 42.1,33.8 60.9,49.5 11,9.2 16.1,13 28.7,25.3 10.7,10.6 4.6,4.7 11.7,11.8 1.6,1.7 6.2,6.3 7.8,7.9 27,27.1 76.3,88.4 106.4,105.8 15.4,8.9 -1.3,3.5 30.7,13.7 l 333.5,-338.2 c 1.1,-1.2 2.8,-2.8 3.9,-3.9 1.6,-1.6 6.2,-6.3 7.8,-7.9 67.2,-67.4 97.6,-62.7 33.2,-128.3 l -72.9,-76.1 c -1,-1.1 -2.6,-2.8 -3.7,-3.9 -1.1,-1.1 -2.8,-2.6 -3.9,-3.7 l -29.6,-25 c -1.1,-1.1 -2.6,-2.8 -3.7,-4 l -32.2,-39.9 c -1.1,-1.2 -2.7,-2.9 -3.8,-4 -1.1,-1.1 -2.7,-2.7 -3.8,-3.8 -1.1,-1.1 -2.8,-2.6 -3.9,-3.7 -37.5,-36.6 -25.8,-27.1 -40.7,-67.8 33.8,12.3 5,-5.5 53.1,48.4 l 228.6,240.5 c 88.8,89.4 111.6,85.5 74.7,130.3 l -338.5,333.7 c -88.1,81.2 -293.6,304.2 -366.8,368.5 -63.9,56.2 -168.6,177 -213,216.6 -15.6,13.9 -15.6,17.5 -40.3,20.3 -15,-6.2 -171,-168 -195.6,-193 -51.3,-52.1 -208.9,-199.9 -255.5,-228.9 l -181.2,-116.8 c -18.6,-12.5 -7.2,-5.1 -29.3,-16.4 L 13413,15226.1 c -32.2,-9.7 -132.6,-46.9 -155.4,-44.1" /></g><path
         id="path76"
         style="fill:#b9e6fa;fill-opacity:1;fill-rule:evenodd;stroke:none"
         d="m 8573.54,10476.8 c -0.54,24 -36.4,175.8 -4.05,253.2 4.56,1.7 0.62,14 39.95,-19.3 8.01,-6.8 12.24,-12.6 21.06,-20 27.07,-22.8 0.83,-9 34.64,-23.1 -41.32,97.4 -105.03,82.4 -148.72,166.4 -17.46,5.1 -129.1,121.5 -150.41,142.2 l -138.82,170.7 c -74.71,116 -60.33,263.9 -43.5,392.9 l 76.96,170.1 c 112.99,134.8 290.79,214.6 365.91,273.4 l 201.45,138.8 c 89.9,73.6 473.2,305.2 642.47,437.3 l 183.97,126.6 c 19.59,15.2 23.49,20.2 38.07,31.8 l 647.98,512.2 232.9,227.6 c 1.4,1.5 3.2,4 4.6,5.5 l 298.8,300.1 c 236.8,244 422.2,491.3 639.1,750.3 24.3,29 32.9,56.7 60.2,90.3 l 270.3,340.3 c 73.3,84.2 45.6,85.8 161.5,208.1 l 69.9,98.9 c 59.1,75 232.2,334.6 298.1,393.6 29,26 14.9,11.4 35.4,42.7 10.7,16.3 21.2,30.6 33.8,47.1 111,145.7 100.1,95.8 46.4,192 -37.3,26.3 -38.1,53.2 -101.5,76.3 -61.4,-32.3 -186.2,-249.1 -255.9,-308.7 -1.6,-1.3 -4.2,-2.9 -5.8,-4.2 l -25,-30.7 c -33.6,-61.6 -48.2,-72.2 -90,-122.5 l -493.9,-656.4 c -28,-34.4 -44.1,-61.4 -71.8,-97.8 l -511.5,-638.9 -624.7,-635.6 c -1.6,-1.3 -3.9,-3.1 -5.5,-4.5 l -25.7,-23.5 c -97.5,-106.2 -131,-119.9 -229,-211.2 -67.75,-63.1 -308.82,-230.7 -403.33,-306.1 l -284,-207.2 c -30.96,-23.6 -64.42,-51.1 -92.78,-76.5 -52.5,-46.9 -386.28,-247.5 -494.22,-326.2 -33.35,-24.2 -64.64,-50.7 -97.88,-71.5 l -196.86,-133.2 c -148.45,-101.3 -360.08,-229.4 -434.36,-386.3 -9.55,-20.2 -16.19,-45.4 -25.52,-66.3 -59.06,-132.4 -31.12,-112.3 -53.67,-186.8 -18.76,-61.9 -15.03,-81.3 -13.56,-159.2 1.78,-94.6 67.37,-287.7 126.26,-368 72.51,-98.9 216.44,-273.2 317.81,-342.2 52.34,-35.7 111.49,-119.6 174.45,-162.5" /><g
         transform="scale(1.3559)"
         id="g78"><path
           id="path80"
           style="fill:#f16161;fill-opacity:1;fill-rule:evenodd;stroke:none"
           d="m 15266.6,15000.6 c 5.9,-25.4 257,-258.8 294.1,-303.1 L 15746,14515 c 29.4,13.8 277.3,260.7 323.7,309.9 l 123.6,127.2 c 93.3,93.2 106.7,37.9 -187.8,330.7 -28,27.9 -59.7,53.6 -88.8,87.6 -15,17.5 -328.1,338.3 -347.8,342.1 -23,5.4 -31.9,12.7 -58.9,36.9 l -37.7,-31.1 c -50.4,-42.2 -55.5,-56 -103.3,-104 l -140.5,-139.9 c -1,-1.1 -2.6,-2.6 -3.6,-3.7 l -150.8,-151.7 c -7.4,-7.6 -8.9,-9 -14.6,-14.8 l -33.3,-24.6 c 15.4,-71.5 20,-34.2 61.9,-74.1 l 124.7,-125.2 c 17.6,-21.3 10,-20.9 26.4,-40.4 l 27.4,-39.3" /></g><path
         id="path82"
         style="fill:#212022;fill-opacity:1;fill-rule:evenodd;stroke:none"
         d="m 15828.8,16230 c -59.3,-46.7 -131.7,-130.7 -145.5,-208.1 -2.5,-14.1 -8.1,-53.9 -8.5,-62.6 -4.1,-80.7 16.4,-159.9 77.7,-216.5 52.8,-48.9 125.4,-84.8 197.4,-82.7 107.8,3.2 204.4,85.1 270.8,160.1 7.3,8.3 53.2,24.5 -12,88.4 l -285.6,284.6 c -26.6,28.9 -54,68.5 -94.3,36.8" /><g
         transform="scale(1.06884)"
         id="g84"><path
           id="path86"
           style="fill:#eab9b9;fill-opacity:1;fill-rule:evenodd;stroke:none"
           d="m 15770.3,13414.2 c -7.8,33.9 -18,32.8 -44.9,65.2 -180.1,216.5 114.9,416.2 270.2,269.6 1.9,-1.8 14.5,-18.9 19.9,-25 l 81.7,-78.6 c 37.6,-41.3 73.2,-67.9 107.2,-107.6 40.5,-47.2 60.5,-66.6 59.6,-149.5 -1.1,-110.9 -45.9,-90.4 -65.4,-160.7 60.2,27.1 87.6,94.8 92.2,151.9 9.2,114 -101.5,206.7 -177.9,282.2 -38.4,37.9 -108.9,115.5 -150.2,138 -46.1,25.1 -84.4,32.7 -140.9,24.2 -24.3,-3.7 -55.5,-23 -75.2,-35 -86.1,-52.5 -113.2,-157.8 -83.5,-246.3 16.3,-48.8 60.2,-110.9 107.2,-128.4" /></g></g></g></svg>