<svg xmlns="http://www.w3.org/2000/svg" xmlns:xlink="http://www.w3.org/1999/xlink" width="1080" zoomAndPan="magnify" viewBox="0 0 810 809.999993" height="1080" preserveAspectRatio="xMidYMid meet" version="1.2"><defs><clipPath id="09df2ea2cc"><path d="M 255.726562 261.457031 L 579.726562 261.457031 L 579.726562 585.457031 L 255.726562 585.457031 Z M 255.726562 261.457031 "/></clipPath></defs><g id="883bc65601"><g clip-rule="nonzero" clip-path="url(#09df2ea2cc)"><path style="fill:none;stroke-width:3.079;stroke-linecap:butt;stroke-linejoin:miter;stroke:#000000;stroke-opacity:1;stroke-miterlimit:22.926001;" d="M 5.435543 16300.086797 L 16300.095723 16300.086797 L 16300.095723 5.426617 L 5.435543 5.426617 Z M 5.435543 16300.086797 " transform="matrix(0.0198706,0,0,-0.0198706,255.72793,585.455487)"/></g><path style=" stroke:none;fill-rule:evenodd;fill:#e9e9e9;fill-opacity:1;" d="M 410.375 403.574219 C 410.878906 403.734375 410.492188 403.566406 410.835938 403.90625 C 411.109375 404.175781 411.753906 404.652344 412.148438 404.753906 C 413.613281 405.128906 415.382812 403.992188 414.980469 401.933594 C 414.742188 400.738281 414.191406 401.15625 413.820312 400.050781 C 413.414062 399.96875 412.304688 398.570312 411.632812 398.136719 C 410.707031 397.535156 409.402344 397.378906 408.550781 398.308594 C 406.316406 400.75 410.082031 402.753906 410.375 403.574219 "/><path style=" stroke:none;fill-rule:evenodd;fill:#e9e9e9;fill-opacity:1;" d="M 437.652344 430.710938 C 437.808594 431.074219 438.316406 431.386719 438.625 431.699219 C 439.285156 432.355469 439.851562 433.273438 441.144531 433.285156 C 441.957031 433.292969 442.183594 433.210938 442.59375 432.863281 C 442.816406 432.054688 443.332031 432.289062 443.347656 431.011719 C 443.355469 430.054688 443.125 429.832031 442.660156 429.285156 C 442.265625 428.828125 441.855469 428.523438 441.421875 428.042969 L 440.480469 427.136719 C 440.417969 427.066406 440.273438 426.871094 440.25 426.847656 C 438.457031 425.160156 435.054688 427.460938 437.132812 429.960938 C 437.441406 430.332031 437.5625 430.320312 437.652344 430.710938 "/><path style=" stroke:none;fill-rule:evenodd;fill:#050202;fill-opacity:1;" d="M 449.410156 423.457031 C 450.527344 422.046875 448.535156 419.078125 446.214844 420.316406 C 445.039062 420.949219 443.914062 422.488281 443.128906 423.273438 C 441.484375 424.910156 443.027344 427.128906 444.378906 427.238281 C 445.859375 427.355469 446.445312 426.644531 447.746094 425.308594 C 447.910156 425.140625 448.023438 424.964844 448.210938 424.796875 L 449.410156 423.457031 "/><path style=" stroke:none;fill-rule:evenodd;fill:#050202;fill-opacity:1;" d="M 417.402344 398.589844 C 417.40625 398.480469 417.324219 398.523438 417.515625 398.523438 C 417.804688 398.003906 417.886719 398.1875 418.503906 397.570312 C 418.855469 397.214844 419.074219 397.007812 419.371094 396.71875 C 419.914062 396.179688 420.683594 395.453125 420.980469 394.757812 C 421.921875 392.535156 419.320312 390.886719 417.710938 391.820312 C 416.902344 392.289062 416.496094 392.902344 415.867188 393.535156 C 414.785156 394.621094 413.664062 395.277344 413.96875 397.007812 C 414.019531 397.308594 414.414062 397.863281 414.617188 398.070312 C 415.410156 398.890625 416.199219 398.765625 417.402344 398.589844 "/><path style=" stroke:none;fill-rule:evenodd;fill:#d4effb;fill-opacity:1;" d="M 349.25 470.320312 C 348.882812 470.171875 349.167969 470.320312 348.875 470.074219 C 348.78125 469.992188 348.734375 469.929688 348.648438 469.855469 C 348.222656 469.496094 348.265625 469.628906 348.214844 469.648438 C 347.867188 470.484375 348.253906 472.121094 348.261719 472.382812 C 348.304688 472.460938 348.25 472.421875 348.414062 472.601562 L 354.046875 478.289062 C 354.21875 478.449219 354.304688 478.519531 354.496094 478.699219 L 356.550781 480.75 C 357.183594 481.324219 357.511719 481.953125 358.191406 482.449219 C 358.675781 482.804688 358.675781 482.976562 359.015625 483.359375 C 359.269531 483.644531 359.539062 483.765625 359.902344 484.089844 C 360.222656 484.371094 360.425781 484.648438 360.691406 484.917969 C 360.96875 485.195312 361.214844 485.394531 361.515625 485.710938 L 364.859375 489.054688 C 366.054688 490.363281 367.742188 491.824219 368.796875 492.992188 C 368.835938 493.039062 368.976562 493.171875 369.019531 493.214844 L 373.164062 497.375 C 373.503906 497.664062 373.71875 497.816406 374.039062 498.121094 C 374.429688 498.492188 375.683594 499.101562 376.167969 499.308594 C 376.351562 499.386719 376.648438 499.375 376.910156 499.425781 C 377.082031 499.457031 377.300781 499.542969 377.519531 499.589844 C 378.835938 499.863281 379.929688 499.46875 380.601562 499.402344 C 381.671875 499.289062 381.160156 499.371094 381.886719 498.996094 C 384.191406 497.816406 382.578125 498.710938 383.910156 497.769531 C 384.621094 497.269531 385.582031 495.828125 386.136719 495.042969 C 386.152344 495.023438 386.167969 494.996094 386.183594 494.980469 L 386.507812 494.558594 C 386.800781 494.144531 386.863281 493.792969 387.210938 493.300781 C 387.222656 493.285156 387.242188 493.257812 387.253906 493.242188 L 389.785156 489.515625 C 390.464844 488.417969 390.300781 488.804688 390.804688 488.0625 L 393.578125 484.140625 C 393.832031 483.78125 393.960938 483.515625 394.207031 483.128906 L 394.90625 482.230469 C 395.675781 481.4375 397.113281 479.402344 397.71875 478.445312 C 397.730469 478.425781 397.746094 478.394531 397.761719 478.378906 L 399.195312 476.699219 C 399.550781 476.335938 399.695312 476.320312 400.257812 476.125 C 401.738281 475.609375 401.785156 476.464844 402.832031 476.546875 C 402.925781 476.171875 403.257812 475.867188 403.601562 475.488281 L 405.207031 473.808594 C 404.894531 473.375 404.347656 472.433594 404.503906 471.632812 C 404.730469 470.507812 406.3125 469.15625 407.152344 468.46875 C 408.335938 467.5 410.824219 465.277344 411.898438 464.480469 L 414.457031 462.601562 C 416.109375 461.175781 418.128906 459.859375 419.917969 458.453125 C 420.082031 458.320312 420.128906 458.300781 420.296875 458.179688 L 422.832031 456.28125 C 423.167969 456.066406 423.28125 455.9375 423.617188 455.675781 L 425.1875 454.347656 C 425.460938 454.136719 425.753906 453.898438 426.042969 453.683594 C 426.191406 453.574219 426.347656 453.488281 426.492188 453.375 C 426.570312 453.316406 426.757812 453.144531 426.839844 453.078125 C 427.246094 452.753906 428.171875 452.222656 428.441406 451.734375 C 428.320312 451.394531 428.304688 451.511719 428.207031 451.273438 C 426.984375 450.769531 427.429688 449.605469 426.117188 450.628906 C 425.855469 450.828125 425.683594 450.960938 425.445312 451.140625 C 424.910156 451.539062 424.582031 451.824219 424.132812 452.203125 L 416.066406 458.382812 C 415.710938 458.703125 415.089844 459.023438 414.671875 459.359375 L 412.925781 460.648438 C 412.328125 461.03125 412.621094 461.023438 412.027344 461.457031 L 410.039062 463.03125 C 408.828125 463.921875 407.859375 464.878906 406.789062 465.722656 C 406.625 465.855469 406.570312 465.871094 406.421875 466 L 401.289062 470.902344 C 400.738281 471.394531 396.691406 475.84375 396.234375 476.535156 C 395.21875 478.074219 393.039062 480.421875 392.167969 481.988281 L 391.707031 482.707031 C 390.375 484.308594 389.398438 485.773438 388.25 487.550781 C 388.097656 487.792969 387.976562 487.972656 387.765625 488.246094 L 384.460938 493.261719 C 384.28125 493.507812 384.207031 493.679688 383.980469 493.972656 C 382.226562 496.222656 382.042969 496.765625 379.027344 497.300781 C 377.871094 497.507812 376.140625 496.707031 375.453125 496.265625 L 374.738281 495.789062 C 374.714844 495.769531 374.652344 495.710938 374.628906 495.691406 L 374.527344 495.585938 C 374.515625 495.570312 374.492188 495.546875 374.480469 495.527344 L 374.207031 495.152344 C 373.566406 494.371094 362.898438 483.847656 360.585938 481.457031 L 349.863281 470.808594 C 349.664062 470.605469 349.5 470.359375 349.25 470.320312 "/><path style=" stroke:none;fill-rule:evenodd;fill:#d4effb;fill-opacity:1;" d="M 472.675781 379.207031 C 472.464844 379.3125 472.273438 379.617188 472.121094 379.835938 C 472.078125 379.890625 472.035156 379.960938 471.988281 380.03125 C 471.015625 381.507812 470.257812 382.988281 469.488281 384.5625 C 468.953125 385.664062 467.679688 388.296875 467.40625 389.269531 L 466.246094 392.335938 C 465.980469 393.011719 465.75 393.507812 465.53125 394.089844 C 465.40625 394.417969 465.304688 394.695312 465.191406 395.039062 C 465.179688 395.082031 465.121094 395.269531 465.113281 395.289062 C 465.011719 395.550781 465.039062 395.445312 465.007812 395.507812 L 463.507812 400.066406 C 463.402344 400.324219 463.386719 400.230469 463.308594 400.503906 C 463.164062 401.003906 463.242188 400.976562 463.046875 401.445312 L 462.355469 403.207031 C 462.109375 403.84375 461.980469 404.457031 461.730469 405.066406 C 461.414062 405.832031 461.257812 406.125 461.628906 406.835938 C 461.773438 407.035156 462.789062 408.066406 463.15625 408.226562 C 463.394531 407.722656 463.648438 407.058594 463.835938 406.441406 L 464.832031 403.6875 C 464.953125 403.175781 464.992188 403.125 465.121094 402.648438 C 465.332031 401.894531 465.671875 401.324219 465.808594 400.777344 C 466.183594 399.300781 467.199219 396.761719 467.722656 394.976562 C 467.828125 394.625 467.9375 394.429688 468.097656 394.058594 C 468.230469 393.746094 468.316406 393.449219 468.449219 393.113281 C 469.304688 391.007812 470.886719 386.871094 471.847656 385.070312 L 475.253906 379.527344 C 475.457031 378.964844 475.296875 379.097656 475.816406 378.589844 C 475.828125 378.574219 475.855469 378.554688 475.871094 378.539062 C 475.882812 378.523438 475.90625 378.503906 475.921875 378.488281 C 475.9375 378.472656 475.957031 378.449219 475.972656 378.433594 L 476.417969 377.882812 C 476.433594 377.863281 476.453125 377.84375 476.46875 377.824219 L 476.878906 377.480469 C 476.894531 377.46875 476.917969 377.445312 476.933594 377.429688 C 476.945312 377.414062 476.96875 377.390625 476.980469 377.375 L 477.988281 376.328125 C 478.878906 375.421875 478.457031 375.484375 477.53125 374.554688 C 477.507812 374.53125 477.445312 374.46875 477.421875 374.445312 C 477.40625 374.433594 477.386719 374.410156 477.367188 374.394531 L 472.765625 369.726562 C 472.324219 369.867188 472.554688 369.792969 472.34375 369.914062 C 471.929688 370.152344 471.246094 371 470.875 371.375 C 470.851562 371.398438 470.789062 371.460938 470.765625 371.484375 C 470.667969 371.582031 470.753906 371.5 470.605469 371.644531 C 470.433594 371.816406 470.363281 371.867188 470.207031 371.996094 C 469.949219 372.210938 469.640625 372.445312 469.371094 372.679688 L 467.191406 374.363281 C 466.691406 374.671875 466.222656 375.019531 465.660156 375.121094 C 465.671875 375.433594 465.722656 375.335938 465.519531 375.484375 C 467.734375 375.585938 470.925781 375.507812 473.3125 375.507812 C 473.851562 375.507812 475.027344 375.441406 475.527344 375.585938 C 475.546875 375.59375 475.589844 375.644531 475.605469 375.621094 C 475.621094 375.597656 475.660156 375.644531 475.683594 375.660156 C 475.675781 376.15625 475.394531 376.253906 475.042969 376.625 L 473.527344 378.363281 C 473.03125 378.769531 473.382812 378.75 472.949219 379.074219 C 472.765625 379.210938 472.964844 379.074219 472.675781 379.207031 "/><path style=" stroke:none;fill-rule:evenodd;fill:#d55a5a;fill-opacity:1;" d="M 400.410156 416.765625 C 400.296875 416.199219 400.40625 416.769531 400.234375 416.359375 C 400.070312 415.964844 400.152344 416.265625 400.070312 415.824219 L 402.691406 412.835938 C 403.046875 412.53125 403.128906 412.429688 403.378906 412.136719 L 404.800781 410.65625 C 404.816406 410.640625 404.835938 410.613281 404.847656 410.597656 C 404.863281 410.578125 404.882812 410.554688 404.894531 410.535156 C 405.269531 410.027344 409.933594 405.148438 410.941406 404.460938 C 410.769531 404.066406 410.480469 403.976562 410.378906 403.574219 C 410.082031 402.753906 406.316406 400.75 408.550781 398.308594 C 409.402344 397.378906 410.707031 397.539062 411.632812 398.136719 C 412.304688 398.570312 413.417969 399.96875 413.820312 400.050781 C 414.261719 400.332031 414.25 400.441406 414.578125 400.703125 C 414.683594 400.785156 414.738281 400.816406 414.8125 400.867188 C 415.402344 400.433594 415.570312 400.222656 416.058594 399.769531 C 416.667969 399.207031 416.847656 399.183594 417.097656 398.980469 C 417.480469 398.667969 417.214844 399.027344 417.402344 398.589844 C 416.199219 398.765625 415.40625 398.890625 414.617188 398.074219 C 414.414062 397.863281 414.019531 397.308594 413.96875 397.007812 C 413.664062 395.28125 414.785156 394.625 415.867188 393.535156 C 416.496094 392.902344 416.902344 392.289062 417.710938 391.820312 C 419.320312 390.886719 421.921875 392.535156 420.980469 394.757812 C 420.683594 395.453125 419.914062 396.179688 419.371094 396.71875 C 419.074219 397.007812 418.855469 397.21875 418.503906 397.570312 C 417.886719 398.1875 417.804688 398.007812 417.515625 398.523438 C 418.148438 398.410156 418.316406 398.144531 418.710938 397.78125 L 426.109375 391.695312 L 433.472656 387.628906 C 434.890625 386.964844 434.445312 387.296875 435.316406 387.253906 L 428.5 380.308594 C 427.769531 379.703125 427.96875 379.949219 426.160156 380.707031 L 421.105469 383.023438 C 420.078125 383.675781 419.015625 384.359375 418.179688 385.050781 C 417.738281 385.417969 417.222656 385.777344 416.753906 386.117188 C 416.558594 386.253906 416.605469 386.230469 416.449219 386.351562 C 415.640625 386.960938 414.890625 387.683594 413.921875 388.253906 C 413.261719 388.640625 412.492188 389.40625 411.886719 389.878906 C 411.625 390.085938 411.511719 390.246094 411.273438 390.449219 L 405.886719 394.996094 C 405.429688 395.371094 405.0625 395.816406 404.628906 396.21875 L 400.859375 399.789062 C 399.449219 401.089844 396.226562 404.695312 394.902344 406.242188 C 394.890625 406.261719 394.867188 406.28125 394.851562 406.300781 C 394.839844 406.316406 394.816406 406.339844 394.800781 406.355469 C 394.789062 406.371094 394.765625 406.394531 394.75 406.410156 C 394.734375 406.425781 394.710938 406.449219 394.695312 406.464844 L 392.871094 408.527344 C 392.535156 409.019531 392.429688 408.839844 393.570312 409.949219 L 398.414062 414.816406 C 399.140625 415.484375 399.992188 416.554688 400.410156 416.765625 "/><path style=" stroke:none;fill-rule:evenodd;fill:#d55a5a;fill-opacity:1;" d="M 479.140625 365.9375 L 478.738281 365.363281 C 478.496094 365.074219 478.609375 365.082031 478.351562 364.769531 L 476.527344 362.9375 C 475.914062 362.355469 475.847656 362.898438 475.621094 361.855469 L 476.109375 361.492188 C 476.195312 361.410156 476.214844 361.386719 476.320312 361.277344 L 478.527344 359.058594 C 478.542969 359.042969 478.566406 359.019531 478.582031 359.003906 L 480.636719 356.957031 C 481.335938 356.253906 481.410156 356.050781 482.148438 355.433594 L 482.699219 354.976562 C 483.097656 355.332031 483.226562 355.4375 483.5625 355.519531 C 483.394531 355.042969 480.238281 352.074219 479.652344 351.492188 C 479.359375 351.203125 475.886719 347.597656 475.578125 347.578125 C 475.277344 347.632812 475.238281 347.71875 475.042969 347.914062 C 474.066406 348.898438 468.191406 354.710938 468.070312 355.027344 C 468.539062 355.394531 468.949219 355.914062 469.394531 356.355469 C 469.84375 356.800781 470.300781 357.308594 470.753906 357.691406 L 478.300781 365.261719 C 478.566406 365.550781 478.726562 365.796875 479.140625 365.9375 "/><path style=" stroke:none;fill-rule:evenodd;fill:#222223;fill-opacity:1;" d="M 347.644531 468.527344 C 348.296875 468.664062 347.773438 468.742188 348.4375 468.867188 C 348.796875 468.078125 348.625 468.015625 349.269531 466.710938 C 349.75 465.738281 350.390625 464.859375 351.136719 464.035156 C 351.261719 463.902344 351.375 463.789062 351.511719 463.652344 L 359.167969 458.46875 C 359.367188 458.332031 359.386719 458.300781 359.617188 458.164062 L 360.984375 457.265625 C 361.636719 456.792969 361.433594 457.09375 362.320312 456.339844 L 364.097656 454.984375 C 364.117188 454.96875 364.140625 454.945312 364.15625 454.933594 C 364.171875 454.917969 364.195312 454.894531 364.210938 454.878906 L 364.628906 454.558594 C 366.429688 453.484375 368.042969 452.164062 369.6875 450.859375 C 369.976562 450.628906 370.265625 450.445312 370.550781 450.210938 C 370.847656 449.964844 371.082031 449.714844 371.339844 449.496094 C 371.652344 449.230469 371.851562 448.925781 372.105469 448.757812 C 372.269531 448.648438 372.363281 448.621094 372.578125 448.464844 C 372.761719 448.335938 372.835938 448.265625 373 448.121094 C 373.507812 447.679688 374.105469 447.171875 374.675781 446.671875 C 375.242188 446.171875 375.722656 445.648438 376.203125 445.175781 C 378.355469 443.058594 380.070312 441.230469 381.992188 438.882812 L 384.042969 436.390625 C 384.757812 435.539062 385.367188 434.515625 386.027344 433.742188 L 387.292969 431.984375 C 388.207031 431.132812 389.199219 429.609375 389.957031 428.601562 L 393.265625 424.480469 C 393.277344 424.460938 393.296875 424.4375 393.308594 424.417969 L 393.902344 423.476562 C 394.304688 422.949219 396.34375 420.261719 396.683594 420.078125 C 397.046875 420.285156 397.058594 420.378906 397.382812 420.707031 C 398.148438 421.484375 401.667969 425.128906 402.238281 425.355469 C 402.125 425.035156 402.164062 425.097656 401.90625 424.800781 C 401.804688 424.683594 401.832031 424.726562 401.699219 424.59375 L 398.59375 421.535156 C 397.632812 420.453125 397.183594 420.222656 396.402344 419.414062 C 396.183594 419.191406 395.882812 418.980469 395.597656 418.714844 C 394.90625 418.0625 395.238281 418.195312 394.535156 417.625 C 394.371094 417.488281 394.289062 417.394531 394.144531 417.25 C 393.734375 416.835938 391.507812 414.691406 391.316406 414.269531 C 391.105469 413.800781 391.074219 413.652344 390.546875 413.5625 C 391.125 414.601562 391.242188 414.0625 390.046875 415.636719 C 389.910156 415.8125 389.796875 415.96875 389.679688 416.144531 C 389.460938 416.480469 389.613281 416.324219 389.296875 416.605469 C 388.585938 417.242188 386.71875 420.042969 386.082031 420.851562 L 385.328125 421.921875 C 384.074219 423.242188 384.375 423.257812 383.582031 424.167969 L 380.667969 427.839844 C 380.371094 428.203125 380.277344 428.5 380.015625 428.8125 C 377.675781 431.609375 375.675781 434.277344 373.117188 436.910156 L 369.894531 440.152344 C 369.878906 440.167969 369.859375 440.195312 369.84375 440.210938 L 367.332031 442.667969 L 360.335938 448.195312 C 360.179688 448.320312 360.136719 448.375 359.925781 448.539062 L 357.941406 449.90625 C 356.113281 451.328125 351.976562 453.828125 351.007812 454.625 L 348.832031 456.121094 C 348.023438 456.757812 346.101562 457.617188 344.882812 459.074219 L 344.054688 460.910156 C 343.871094 462.300781 343.714844 463.898438 344.523438 465.148438 L 346.019531 466.992188 C 346.25 467.214844 347.457031 468.472656 347.644531 468.527344 "/><path style=" stroke:none;fill-rule:evenodd;fill:#222223;fill-opacity:1;" d="M 436.457031 379.347656 C 435.957031 379.328125 434.941406 379.84375 434.671875 379.765625 C 434.609375 379.746094 433.257812 378.5 433.0625 378.019531 L 438.410156 376.148438 C 438.6875 375.992188 438.542969 376.082031 438.695312 375.929688 C 438.109375 375.804688 438.339844 375.855469 437.816406 376.070312 L 433.515625 377.566406 C 433.242188 377.675781 432.949219 377.796875 432.742188 378.019531 C 432.894531 378.582031 433.570312 378.980469 434.195312 379.667969 C 434.570312 380.078125 434.367188 379.835938 434.839844 380.105469 C 435.179688 380.296875 439.472656 384.5625 439.96875 385.242188 C 440.21875 385.585938 440.628906 386.128906 441.125 386.246094 C 440.746094 385.535156 440.328125 385.675781 440.28125 385.035156 C 440.675781 384.792969 441.707031 384.527344 442.269531 384.316406 L 442.636719 384.125 C 443.117188 383.78125 443.800781 383.753906 444.445312 383.488281 C 445.425781 383.082031 445.46875 383.226562 446.398438 382.851562 L 450.328125 381.488281 C 450.796875 381.292969 451.480469 381.21875 452.535156 380.675781 L 454.117188 380.128906 C 455.5625 379.773438 457.105469 379.003906 458.679688 378.496094 C 459.214844 378.324219 459.503906 378.128906 460.175781 377.925781 C 460.695312 377.769531 461.023438 377.488281 461.542969 377.265625 C 462 377.070312 463.976562 376.175781 464.289062 375.894531 C 462.84375 375.792969 447.402344 375.734375 446.71875 375.960938 L 443.792969 376.9375 C 443.761719 376.949219 443.484375 377.058594 443.410156 377.089844 L 438.996094 378.609375 C 438.351562 378.886719 437.066406 379.414062 436.457031 379.347656 "/><path style=" stroke:none;fill-rule:evenodd;fill:#444346;fill-opacity:1;" d="M 347.644531 468.527344 C 348.117188 469.433594 348.804688 469.269531 349.25 470.320312 C 349.5 470.359375 349.664062 470.605469 349.863281 470.808594 L 360.585938 481.457031 C 362.898438 483.847656 373.566406 494.371094 374.207031 495.152344 L 374.480469 495.527344 C 374.492188 495.546875 374.515625 495.570312 374.527344 495.585938 L 374.628906 495.691406 C 374.652344 495.710938 374.714844 495.769531 374.738281 495.789062 L 375.453125 496.265625 C 376.140625 496.707031 377.871094 497.507812 379.027344 497.300781 C 382.042969 496.765625 382.226562 496.222656 383.980469 493.972656 C 384.207031 493.679688 384.28125 493.507812 384.460938 493.261719 L 387.765625 488.25 C 387.976562 487.972656 388.097656 487.792969 388.25 487.550781 C 389.398438 485.773438 390.375 484.308594 391.707031 482.707031 L 392.167969 481.988281 C 393.039062 480.421875 395.21875 478.078125 396.234375 476.535156 C 396.691406 475.84375 400.738281 471.394531 401.289062 470.902344 L 406.421875 466 C 406.570312 465.871094 406.625 465.855469 406.789062 465.722656 C 407.859375 464.878906 408.828125 463.921875 410.039062 463.03125 L 412.027344 461.457031 C 412.621094 461.023438 412.328125 461.03125 412.925781 460.648438 L 414.671875 459.359375 C 415.089844 459.023438 415.710938 458.703125 416.066406 458.382812 L 424.132812 452.203125 C 424.582031 451.824219 424.910156 451.539062 425.445312 451.140625 C 425.683594 450.960938 425.855469 450.828125 426.117188 450.628906 C 427.429688 449.605469 426.984375 450.769531 428.207031 451.273438 C 428.023438 450.503906 427.25 450.105469 426.667969 449.789062 L 420.394531 443.675781 C 420.199219 443.464844 420.5 443.808594 420.25 443.503906 C 419.953125 443.148438 419.855469 443.105469 419.570312 442.777344 C 418.070312 441.050781 416.625 439.957031 415.292969 438.519531 C 413.675781 436.777344 412.574219 435.851562 411.058594 434.335938 C 410.53125 433.8125 410.160156 433.335938 409.652344 432.828125 C 408.816406 431.992188 407.335938 430.808594 407.433594 429.527344 C 407.464844 429.125 407.675781 428.386719 408.078125 428.074219 C 408.875 427.453125 407.992188 428.476562 408.476562 427.726562 L 407.972656 427.804688 C 407.851562 427.585938 405.765625 425.488281 405.511719 425.316406 C 405.679688 424.761719 405.628906 425.308594 405.730469 424.644531 C 405.257812 424.867188 405.574219 424.617188 405.300781 425.074219 C 404.542969 426.328125 402.632812 425.839844 402.238281 425.355469 C 401.667969 425.128906 398.148438 421.484375 397.382812 420.707031 C 397.058594 420.378906 397.046875 420.285156 396.683594 420.078125 C 396.34375 420.261719 394.304688 422.949219 393.902344 423.476562 L 393.308594 424.417969 C 393.296875 424.4375 393.277344 424.460938 393.265625 424.480469 L 389.957031 428.601562 C 389.199219 429.609375 388.207031 431.132812 387.292969 431.984375 L 386.027344 433.742188 C 385.367188 434.515625 384.757812 435.539062 384.042969 436.390625 L 381.992188 438.882812 C 380.070312 441.230469 378.355469 443.058594 376.203125 445.175781 C 375.722656 445.648438 375.242188 446.171875 374.675781 446.671875 C 374.105469 447.171875 373.507812 447.679688 373 448.121094 C 372.835938 448.265625 372.761719 448.335938 372.578125 448.464844 C 372.363281 448.621094 372.269531 448.648438 372.105469 448.757812 C 371.851562 448.925781 371.652344 449.230469 371.339844 449.496094 C 371.082031 449.714844 370.847656 449.964844 370.550781 450.210938 C 370.265625 450.445312 369.976562 450.628906 369.6875 450.859375 C 368.042969 452.164062 366.429688 453.484375 364.628906 454.558594 L 364.210938 454.878906 C 364.195312 454.894531 364.171875 454.917969 364.15625 454.933594 C 364.140625 454.945312 364.117188 454.96875 364.097656 454.984375 L 362.320312 456.339844 C 361.433594 457.09375 361.636719 456.792969 360.984375 457.265625 L 359.617188 458.164062 C 359.386719 458.300781 359.367188 458.332031 359.167969 458.46875 L 351.511719 463.652344 C 351.375 463.789062 351.261719 463.902344 351.136719 464.035156 C 350.390625 464.859375 349.75 465.738281 349.269531 466.710938 C 348.625 468.015625 348.796875 468.078125 348.4375 468.867188 C 347.773438 468.742188 348.296875 468.664062 347.644531 468.527344 "/><path style=" stroke:none;fill-rule:evenodd;fill:#444346;fill-opacity:1;" d="M 436.457031 379.347656 C 437.066406 379.414062 438.351562 378.882812 438.996094 378.605469 L 443.410156 377.085938 C 443.484375 377.058594 443.761719 376.949219 443.792969 376.9375 L 446.722656 375.957031 C 447.40625 375.734375 462.84375 375.792969 464.292969 375.894531 C 463.976562 376.175781 462 377.066406 461.546875 377.261719 C 461.023438 377.484375 460.695312 377.769531 460.179688 377.925781 C 459.503906 378.128906 459.214844 378.324219 458.683594 378.496094 C 457.105469 379.003906 455.5625 379.773438 454.117188 380.128906 L 452.535156 380.671875 C 451.480469 381.214844 450.796875 381.292969 450.328125 381.488281 L 446.402344 382.851562 C 445.472656 383.226562 445.425781 383.082031 444.445312 383.488281 C 443.800781 383.753906 443.117188 383.78125 442.636719 384.125 L 442.269531 384.3125 C 441.707031 384.527344 440.675781 384.789062 440.28125 385.03125 C 440.332031 385.675781 440.746094 385.53125 441.125 386.246094 C 441.242188 386.453125 441.980469 387.160156 442.277344 387.464844 L 445.558594 390.675781 C 445.796875 390.875 445.953125 391.082031 446.203125 391.320312 C 446.21875 391.335938 446.242188 391.355469 446.261719 391.371094 L 447.117188 392.238281 C 447.132812 392.253906 447.15625 392.273438 447.175781 392.289062 L 447.453125 392.546875 C 447.640625 392.738281 447.816406 393.003906 448.0625 393.234375 L 450.664062 395.804688 C 450.894531 396.050781 451.082031 396.203125 451.324219 396.445312 C 451.824219 396.953125 451.972656 397.308594 452.511719 397.722656 C 453.355469 398.378906 453.898438 399.171875 454.429688 399.699219 L 455.082031 400.347656 C 455.09375 400.363281 455.195312 400.464844 455.238281 400.511719 L 457.699219 402.914062 C 458.046875 403.261719 458.101562 403.09375 458.566406 403.652344 L 458.660156 403.769531 C 458.675781 403.789062 458.695312 403.8125 458.710938 403.832031 L 460.253906 405.316406 C 460.265625 405.328125 460.289062 405.355469 460.300781 405.371094 L 461.175781 406.542969 C 461.550781 406.964844 461.125 406.707031 461.628906 406.835938 C 461.257812 406.125 461.414062 405.832031 461.730469 405.066406 C 461.980469 404.453125 462.109375 403.84375 462.359375 403.207031 L 463.046875 401.445312 C 463.242188 400.976562 463.164062 401.003906 463.308594 400.503906 C 463.390625 400.230469 463.40625 400.324219 463.507812 400.066406 L 465.007812 395.507812 C 465.039062 395.445312 465.011719 395.550781 465.113281 395.289062 C 465.121094 395.269531 465.179688 395.082031 465.191406 395.039062 C 465.304688 394.695312 465.40625 394.417969 465.53125 394.089844 C 465.75 393.507812 465.980469 393.011719 466.246094 392.335938 L 467.40625 389.269531 C 467.679688 388.296875 468.953125 385.664062 469.492188 384.5625 C 470.257812 382.988281 471.019531 381.507812 471.988281 380.027344 C 472.035156 379.960938 472.082031 379.890625 472.121094 379.835938 C 472.273438 379.617188 472.464844 379.308594 472.679688 379.203125 C 472.78125 378.65625 474.164062 377.207031 474.710938 376.609375 C 474.855469 376.453125 474.941406 376.382812 475.085938 376.230469 C 475.328125 375.972656 475.289062 376.109375 475.367188 375.757812 C 473.421875 375.558594 467.390625 375.800781 464.675781 375.707031 C 459.957031 375.539062 453.789062 375.683594 448.8125 375.683594 C 445.296875 375.683594 447.066406 375.804688 444.726562 376.335938 L 441.324219 377.546875 C 440.46875 377.867188 436.949219 378.941406 436.457031 379.347656 "/><path style=" stroke:none;fill-rule:evenodd;fill:#000000;fill-opacity:1;" d="M 475.253906 379.527344 L 471.847656 385.070312 C 470.886719 386.871094 469.308594 391.007812 468.453125 393.113281 C 468.316406 393.449219 468.230469 393.746094 468.097656 394.058594 C 467.9375 394.429688 467.828125 394.625 467.722656 394.976562 C 467.199219 396.761719 466.183594 399.300781 465.808594 400.777344 C 465.671875 401.324219 465.332031 401.894531 465.121094 402.648438 C 464.992188 403.125 464.953125 403.175781 464.832031 403.6875 L 463.835938 406.441406 C 463.648438 407.058594 463.394531 407.722656 463.15625 408.226562 C 462.789062 408.066406 461.773438 407.035156 461.628906 406.835938 C 461.125 406.707031 461.550781 406.964844 461.175781 406.542969 L 460.300781 405.371094 C 460.289062 405.355469 460.265625 405.328125 460.253906 405.316406 L 458.710938 403.832031 C 458.695312 403.8125 458.675781 403.789062 458.660156 403.769531 L 458.566406 403.652344 C 458.101562 403.09375 458.046875 403.261719 457.699219 402.914062 L 455.238281 400.511719 C 455.195312 400.464844 455.09375 400.363281 455.082031 400.347656 L 454.433594 399.699219 C 453.898438 399.171875 453.355469 398.378906 452.511719 397.722656 C 451.972656 397.308594 451.824219 396.953125 451.324219 396.445312 C 451.082031 396.203125 450.890625 396.050781 450.664062 395.804688 L 448.058594 393.234375 C 447.820312 393.003906 447.636719 392.738281 447.453125 392.546875 L 447.171875 392.289062 C 447.15625 392.273438 447.132812 392.253906 447.117188 392.238281 L 446.261719 391.371094 C 446.242188 391.355469 446.21875 391.335938 446.199219 391.316406 C 445.953125 391.082031 445.792969 390.875 445.554688 390.675781 L 442.277344 387.464844 C 441.980469 387.160156 441.242188 386.453125 441.125 386.246094 C 440.628906 386.128906 440.21875 385.585938 439.96875 385.242188 C 439.472656 384.5625 435.179688 380.292969 434.839844 380.105469 C 434.367188 379.835938 434.570312 380.078125 434.199219 379.664062 C 433.570312 378.980469 432.894531 378.582031 432.742188 378.019531 C 432.949219 377.796875 433.242188 377.675781 433.515625 377.566406 L 437.816406 376.070312 C 438.339844 375.851562 438.113281 375.808594 438.695312 375.929688 C 439.007812 375.96875 440.394531 375.457031 440.835938 375.324219 L 457.8125 368.441406 C 458.117188 368.285156 457.960938 368.386719 458.214844 368.214844 L 460.71875 366.601562 C 461.359375 366.203125 463.535156 364.164062 464.242188 363.445312 C 464.582031 363.097656 466.734375 360.867188 466.941406 360.78125 C 467.285156 360.820312 467.285156 360.871094 467.5 361.0625 C 468.113281 361.605469 469.558594 363.273438 470.441406 364.050781 C 471.449219 364.9375 474.285156 368.015625 475.5 369.136719 L 480.171875 373.742188 C 480.683594 374.359375 480.367188 374.304688 479.140625 375.539062 L 475.988281 378.859375 C 475.324219 379.601562 475.71875 379.355469 475.253906 379.527344 Z M 474.777344 342.511719 L 476.519531 342.511719 C 476.703125 342.53125 476.84375 342.554688 476.910156 342.578125 L 477.285156 342.742188 C 477.410156 342.800781 477.414062 342.792969 477.582031 342.878906 C 477.648438 342.910156 477.859375 343.023438 477.933594 343.066406 L 478.644531 343.652344 C 478.667969 343.671875 478.730469 343.738281 478.753906 343.761719 L 482.332031 347.304688 C 482.347656 347.320312 482.371094 347.34375 482.386719 347.359375 L 484.328125 349.300781 C 484.351562 349.324219 484.414062 349.386719 484.4375 349.40625 C 484.460938 349.429688 484.523438 349.492188 484.542969 349.515625 C 484.558594 349.53125 484.582031 349.554688 484.597656 349.570312 C 484.613281 349.585938 484.636719 349.609375 484.652344 349.625 L 493.558594 358.527344 C 493.570312 358.542969 493.59375 358.566406 493.609375 358.582031 L 493.71875 358.691406 C 493.734375 358.707031 493.757812 358.726562 493.769531 358.742188 L 496.039062 361.011719 C 496.054688 361.027344 496.078125 361.046875 496.09375 361.066406 L 496.363281 361.332031 C 496.378906 361.347656 496.402344 361.371094 496.417969 361.386719 L 497.53125 362.539062 C 497.753906 362.757812 497.753906 362.714844 497.953125 362.984375 L 498.570312 364.195312 C 498.613281 364.300781 498.589844 364.121094 498.65625 364.4375 C 498.671875 364.515625 498.671875 364.519531 498.671875 364.527344 C 498.671875 364.53125 498.671875 364.539062 498.671875 364.554688 L 498.671875 366.492188 C 498.511719 367.636719 497.957031 368.320312 496.757812 369.519531 C 495.136719 371.140625 490.289062 376.234375 488.886719 377.296875 C 487.988281 377.972656 487.984375 377.808594 486.988281 378.097656 C 486.203125 378.328125 485.699219 378.140625 484.984375 378.003906 C 484.578125 377.921875 484.476562 377.554688 483.996094 377.695312 C 483.339844 378.132812 481.835938 379.800781 481.164062 380.472656 C 479.972656 381.664062 478.839844 382.765625 478 384.21875 L 476.363281 387.007812 C 476.351562 387.027344 476.335938 387.058594 476.324219 387.074219 L 474.453125 391.140625 C 474.445312 391.167969 474.4375 391.195312 474.425781 391.222656 L 473.355469 394.039062 C 472.839844 395.324219 472.238281 396.699219 471.859375 398.042969 L 470.785156 401.175781 C 470.398438 402.011719 470.164062 403.097656 469.804688 403.976562 C 469.308594 405.183594 469.003906 406.554688 468.507812 407.753906 L 465.746094 415.351562 C 465.640625 415.605469 465.746094 415.328125 465.636719 415.566406 L 463.714844 419.902344 C 463.667969 420.007812 463.675781 420.019531 463.621094 420.132812 L 462.6875 421.894531 C 462.578125 422.117188 462.582031 422.121094 462.46875 422.328125 L 461.839844 423.316406 C 461.828125 423.335938 461.808594 423.363281 461.796875 423.378906 C 461.148438 424.417969 460.457031 425.5 459.664062 426.425781 L 458.964844 427.351562 C 458.945312 427.375 458.886719 427.445312 458.867188 427.46875 L 455.382812 431.972656 C 455.371094 431.988281 455.347656 432.011719 455.335938 432.03125 L 453.558594 434.140625 C 453.378906 434.371094 453.195312 434.617188 452.988281 434.863281 L 450.453125 437.832031 C 450.308594 438 450.234375 438.082031 450.105469 438.238281 L 449.847656 438.523438 C 449.832031 438.539062 449.808594 438.5625 449.796875 438.578125 C 449.546875 438.847656 449.367188 439.019531 449.105469 439.292969 C 448.824219 439.585938 448.753906 439.757812 448.460938 440.050781 L 446.285156 442.300781 C 446.269531 442.316406 446.246094 442.339844 446.234375 442.355469 C 446.195312 442.394531 446.140625 442.460938 446.078125 442.527344 L 445.097656 443.484375 C 444.992188 443.589844 444.984375 443.597656 444.882812 443.699219 C 444.039062 444.542969 443.230469 445.453125 442.328125 446.21875 L 439.519531 448.808594 C 439.503906 448.824219 439.476562 448.84375 439.460938 448.859375 C 439.304688 448.996094 439.199219 449.066406 439.050781 449.203125 L 433.980469 453.632812 C 432.734375 454.789062 430.578125 456.195312 429.480469 457.226562 L 421.167969 463.589844 C 421.0625 463.671875 421.042969 463.6875 420.921875 463.777344 L 418.777344 465.410156 C 418.488281 465.625 418.308594 465.796875 418.050781 465.980469 L 414.332031 468.84375 C 412.691406 470.226562 411.019531 471.5625 409.460938 473.039062 C 408.359375 474.078125 406.777344 475.308594 405.207031 473.8125 C 404.898438 473.375 404.34375 472.433594 404.503906 471.632812 C 404.730469 470.507812 406.3125 469.15625 407.152344 468.46875 C 408.335938 467.5 410.824219 465.277344 411.898438 464.480469 L 414.457031 462.601562 C 416.109375 461.175781 418.128906 459.859375 419.914062 458.453125 C 420.082031 458.320312 420.128906 458.300781 420.296875 458.179688 L 422.832031 456.28125 C 423.167969 456.066406 423.28125 455.9375 423.617188 455.675781 L 425.1875 454.347656 C 425.460938 454.136719 425.753906 453.898438 426.042969 453.6875 C 426.191406 453.574219 426.347656 453.488281 426.492188 453.375 C 426.570312 453.316406 426.757812 453.144531 426.839844 453.078125 C 427.246094 452.753906 428.171875 452.222656 428.441406 451.734375 C 428.320312 451.394531 428.304688 451.511719 428.207031 451.273438 C 428.023438 450.503906 427.25 450.105469 426.667969 449.789062 L 420.394531 443.675781 C 420.199219 443.464844 420.5 443.808594 420.246094 443.503906 C 419.953125 443.148438 419.855469 443.105469 419.570312 442.777344 C 418.066406 441.050781 416.625 439.957031 415.292969 438.519531 C 413.675781 436.777344 412.574219 435.851562 411.054688 434.335938 C 410.53125 433.8125 410.15625 433.335938 409.652344 432.828125 C 408.816406 431.992188 407.332031 430.8125 407.433594 429.527344 C 407.464844 429.125 407.671875 428.386719 408.078125 428.074219 C 408.875 427.453125 407.992188 428.480469 408.476562 427.726562 C 408.714844 427.289062 409.964844 427.066406 410.628906 427.335938 C 410.703125 427.367188 411.335938 427.796875 411.464844 427.886719 C 411.792969 428.113281 411.9375 428.328125 412.1875 428.566406 L 420.757812 437.152344 C 421.21875 437.640625 421.667969 438.09375 422.164062 438.554688 L 431.453125 447.828125 C 432.359375 448.824219 431.933594 449.105469 434.386719 446.800781 C 435.125 446.105469 435.8125 445.625 436.519531 444.945312 C 437.878906 443.644531 439.339844 442.398438 440.667969 441 C 441.308594 440.328125 442.03125 439.628906 442.660156 439 C 443.566406 438.097656 446.980469 434.5 447.53125 433.722656 L 453.09375 427.210938 C 453.175781 427.085938 453.3125 426.742188 453.433594 426.5625 L 454.789062 424.800781 C 456.339844 422.605469 456.8125 422.34375 458.265625 419.738281 C 458.648438 419.054688 459.257812 418.050781 459.496094 417.414062 L 461.226562 413.550781 C 461.3125 413.277344 461.292969 413.414062 461.289062 413.09375 L 451.542969 403.453125 C 451.257812 403.183594 451.023438 402.902344 450.746094 402.632812 L 448.316406 400.203125 C 446.359375 398.441406 443.796875 395.65625 441.824219 393.742188 C 441.265625 393.199219 440.8125 392.625 440.246094 392.089844 L 435.316406 387.253906 L 428.5 380.308594 C 427.769531 379.703125 427.96875 379.949219 426.160156 380.707031 L 421.105469 383.023438 C 420.078125 383.675781 419.015625 384.359375 418.179688 385.050781 C 417.738281 385.417969 417.222656 385.777344 416.753906 386.113281 C 416.558594 386.253906 416.605469 386.230469 416.449219 386.351562 C 415.636719 386.960938 414.890625 387.683594 413.921875 388.253906 C 413.265625 388.640625 412.492188 389.402344 411.886719 389.882812 C 411.621094 390.085938 411.511719 390.246094 411.269531 390.449219 L 405.886719 394.996094 C 405.429688 395.371094 405.0625 395.816406 404.628906 396.21875 L 400.859375 399.789062 C 399.449219 401.089844 396.222656 404.695312 394.902344 406.242188 C 394.890625 406.261719 394.867188 406.28125 394.851562 406.296875 C 394.839844 406.316406 394.816406 406.335938 394.800781 406.355469 C 394.785156 406.371094 394.765625 406.390625 394.75 406.410156 C 394.734375 406.425781 394.710938 406.449219 394.695312 406.464844 L 392.871094 408.527344 C 392.535156 409.019531 392.429688 408.839844 393.570312 409.949219 L 398.414062 414.816406 C 399.140625 415.484375 399.992188 416.554688 400.410156 416.761719 L 401.179688 417.660156 C 402.441406 418.90625 404.476562 420.726562 405.488281 421.984375 C 405.738281 422.296875 405.957031 422.792969 406.003906 423.242188 C 406.085938 423.976562 405.882812 424.027344 405.730469 424.644531 C 405.257812 424.867188 405.574219 424.617188 405.300781 425.074219 C 404.542969 426.328125 402.632812 425.839844 402.238281 425.355469 C 402.125 425.035156 402.164062 425.097656 401.90625 424.800781 C 401.804688 424.683594 401.832031 424.726562 401.695312 424.59375 L 398.59375 421.535156 C 397.632812 420.453125 397.183594 420.222656 396.402344 419.414062 C 396.183594 419.191406 395.878906 418.984375 395.597656 418.714844 C 394.90625 418.0625 395.238281 418.195312 394.535156 417.625 C 394.371094 417.488281 394.289062 417.398438 394.144531 417.25 C 393.734375 416.835938 391.507812 414.691406 391.316406 414.269531 C 391.105469 413.804688 391.074219 413.652344 390.546875 413.566406 C 390.144531 413.28125 390.136719 412.992188 389.449219 412.742188 C 388.789062 413.089844 387.441406 415.429688 386.6875 416.070312 C 386.671875 416.085938 386.644531 416.105469 386.625 416.117188 L 386.355469 416.449219 C 385.992188 417.113281 385.835938 417.226562 385.386719 417.769531 L 380.054688 424.855469 C 379.753906 425.226562 379.578125 425.519531 379.28125 425.910156 L 373.757812 432.804688 L 367.015625 439.667969 C 367 439.679688 366.976562 439.699219 366.957031 439.714844 L 366.679688 439.96875 C 365.628906 441.113281 365.265625 441.261719 364.207031 442.246094 C 363.476562 442.929688 360.875 444.738281 359.855469 445.550781 L 356.789062 447.789062 C 356.457031 448.042969 356.09375 448.339844 355.789062 448.613281 C 355.222656 449.121094 351.621094 451.285156 350.453125 452.132812 C 350.09375 452.394531 349.757812 452.683594 349.398438 452.90625 L 347.273438 454.34375 C 345.671875 455.4375 343.386719 456.820312 342.585938 458.511719 C 342.484375 458.730469 342.410156 459.003906 342.308594 459.230469 C 341.671875 460.65625 341.972656 460.441406 341.730469 461.242188 C 341.527344 461.914062 341.570312 462.121094 341.585938 462.964844 C 341.605469 463.984375 342.3125 466.066406 342.949219 466.933594 C 343.730469 468 345.285156 469.882812 346.378906 470.628906 C 346.941406 471.011719 347.582031 471.917969 348.261719 472.382812 C 348.304688 472.460938 348.25 472.421875 348.414062 472.601562 L 354.046875 478.289062 C 354.21875 478.449219 354.304688 478.519531 354.496094 478.699219 L 356.550781 480.75 C 357.183594 481.324219 357.511719 481.953125 358.191406 482.449219 C 358.675781 482.804688 358.675781 482.976562 359.015625 483.359375 C 359.269531 483.644531 359.539062 483.765625 359.902344 484.089844 C 360.222656 484.371094 360.425781 484.648438 360.691406 484.917969 C 360.96875 485.195312 361.214844 485.394531 361.515625 485.710938 L 364.859375 489.054688 C 366.050781 490.363281 367.742188 491.824219 368.796875 492.996094 C 368.835938 493.039062 368.972656 493.171875 369.019531 493.214844 L 373.164062 497.375 C 373.503906 497.664062 373.71875 497.816406 374.039062 498.121094 C 374.433594 498.492188 375.683594 499.101562 376.167969 499.308594 C 376.351562 499.386719 376.648438 499.375 376.910156 499.425781 C 377.082031 499.457031 377.300781 499.542969 377.519531 499.589844 C 378.835938 499.863281 379.929688 499.46875 380.601562 499.402344 C 381.671875 499.289062 381.160156 499.371094 381.886719 498.996094 C 384.191406 497.816406 382.582031 498.710938 383.910156 497.769531 C 384.621094 497.269531 385.582031 495.828125 386.136719 495.042969 C 386.152344 495.023438 386.171875 495 386.183594 494.980469 L 386.507812 494.558594 C 386.800781 494.144531 386.859375 493.792969 387.210938 493.304688 C 387.222656 493.285156 387.242188 493.257812 387.253906 493.242188 L 389.785156 489.515625 C 390.464844 488.417969 390.300781 488.804688 390.804688 488.0625 L 393.578125 484.140625 C 393.832031 483.78125 393.960938 483.515625 394.207031 483.128906 L 394.90625 482.230469 C 395.675781 481.4375 397.113281 479.402344 397.71875 478.445312 C 397.730469 478.425781 397.746094 478.394531 397.761719 478.378906 L 399.195312 476.699219 C 399.550781 476.335938 399.695312 476.320312 400.257812 476.125 C 401.738281 475.609375 401.785156 476.464844 402.832031 476.546875 C 403.066406 477.449219 404.039062 477.90625 402.964844 479.707031 C 402.371094 480.703125 401.523438 481.617188 400.828125 482.539062 L 393.90625 492.128906 C 393.769531 492.335938 393.828125 492.273438 393.710938 492.472656 C 393.625 492.617188 393.621094 492.617188 393.539062 492.730469 L 388.578125 499.96875 C 388.5625 499.984375 388.542969 500.007812 388.527344 500.023438 L 387.804688 500.8125 C 387.605469 501.027344 387.5 501.105469 387.296875 501.273438 L 385.902344 502.367188 C 385.886719 502.378906 385.863281 502.402344 385.84375 502.414062 L 383.71875 503.527344 C 383.117188 503.726562 382.582031 504.03125 381.972656 504.15625 L 381.15625 504.3125 C 381.042969 504.347656 380.878906 504.378906 380.679688 504.402344 L 376.664062 504.402344 C 376.546875 504.390625 376.570312 504.394531 376.4375 504.355469 L 376.28125 504.296875 C 376.253906 504.289062 376.230469 504.273438 376.203125 504.265625 C 375.378906 503.992188 374.472656 503.863281 373.648438 503.472656 C 373.617188 503.460938 373.539062 503.414062 373.507812 503.398438 C 373.488281 503.386719 373.464844 503.367188 373.441406 503.355469 L 371.945312 502.585938 L 343.714844 474.910156 C 341.925781 473.121094 339.859375 471.375 338.558594 469.167969 L 338.351562 468.835938 C 338.339844 468.8125 338.324219 468.785156 338.3125 468.765625 L 337.835938 467.839844 C 337.570312 467.277344 337.507812 467.355469 337.320312 466.519531 C 337.234375 466.140625 337.316406 466.398438 337.195312 466.105469 L 336.804688 464.664062 C 336.792969 464.613281 336.785156 464.5625 336.78125 464.507812 L 336.78125 464.121094 L 337.074219 459.039062 L 338.554688 455.664062 C 338.574219 455.636719 338.621094 455.558594 338.636719 455.53125 L 338.816406 455.28125 C 338.832031 455.261719 338.851562 455.238281 338.867188 455.21875 C 339.414062 454.527344 339.878906 453.824219 340.539062 453.226562 L 352.972656 444.609375 C 354.765625 443.324219 358.832031 440.339844 360.359375 439.046875 L 362.1875 437.53125 C 362.203125 437.515625 362.226562 437.492188 362.242188 437.476562 L 364.042969 435.824219 C 365.371094 434.570312 366.722656 433.320312 367.914062 431.925781 L 369.007812 430.75 C 369.023438 430.734375 369.046875 430.710938 369.0625 430.695312 L 369.4375 430.316406 C 369.453125 430.300781 369.476562 430.277344 369.492188 430.261719 L 369.90625 429.8125 C 369.921875 429.796875 369.941406 429.773438 369.957031 429.757812 L 370.824219 428.679688 C 370.835938 428.664062 370.859375 428.640625 370.875 428.625 L 373 426 C 373.191406 425.746094 373.234375 425.699219 373.4375 425.464844 C 374.296875 424.46875 375 423.367188 375.820312 422.347656 L 377.6875 419.894531 C 377.703125 419.875 377.722656 419.851562 377.734375 419.835938 L 378.382812 418.96875 C 379.554688 417.527344 380.558594 415.988281 381.722656 414.542969 L 383.847656 411.808594 C 383.863281 411.792969 383.886719 411.773438 383.902344 411.753906 L 384.160156 411.472656 C 384.320312 411.269531 384.382812 411.136719 384.566406 410.910156 C 384.746094 410.695312 384.820312 410.585938 384.996094 410.367188 L 398.238281 395.546875 C 398.253906 395.53125 398.277344 395.507812 398.292969 395.496094 L 405.226562 389.152344 C 405.320312 389.078125 405.367188 389.042969 405.464844 388.957031 C 405.480469 388.945312 405.503906 388.921875 405.519531 388.90625 L 409.09375 385.898438 C 410.652344 384.585938 412.347656 383.375 413.949219 382.117188 L 416.285156 380.351562 C 416.421875 380.246094 416.429688 380.25 416.542969 380.179688 C 416.800781 380.023438 416.820312 380.019531 417.066406 379.835938 L 423.074219 376.671875 C 423.292969 376.5625 423.53125 376.4375 423.726562 376.351562 L 426.625 375.148438 C 426.898438 375.023438 426.714844 375.097656 426.929688 375.027344 L 432.792969 372.898438 C 432.816406 372.890625 432.847656 372.878906 432.871094 372.871094 L 437.433594 371.28125 C 437.601562 371.222656 437.601562 371.238281 437.773438 371.1875 L 439.863281 370.472656 C 440.242188 370.3125 440.007812 370.359375 440.5 370.246094 C 440.671875 370.207031 440.558594 370.253906 440.761719 370.183594 C 440.792969 370.171875 440.878906 370.128906 440.910156 370.117188 L 441.542969 369.886719 C 441.816406 369.796875 441.546875 369.886719 441.851562 369.761719 L 449.265625 367.035156 C 449.605469 366.902344 449.324219 366.988281 449.558594 366.890625 C 449.578125 366.878906 449.609375 366.867188 449.632812 366.859375 L 450.875 366.375 C 451.015625 366.3125 450.941406 366.332031 451.160156 366.226562 L 456.132812 363.753906 C 456.246094 363.683594 456.347656 363.617188 456.457031 363.539062 C 456.476562 363.527344 456.503906 363.507812 456.519531 363.492188 L 456.640625 363.402344 C 456.660156 363.386719 456.6875 363.367188 456.703125 363.355469 C 457.402344 362.859375 458.105469 362.507812 458.730469 361.925781 C 458.746094 361.914062 458.769531 361.890625 458.785156 361.875 L 459.308594 361.425781 C 460.578125 360.210938 461.710938 358.980469 462.976562 357.753906 C 463.375 357.371094 463.699219 357.246094 463.363281 356.566406 C 463.089844 356.011719 462.933594 354.964844 463.089844 354.316406 L 463.855469 352.375 C 464.484375 351.515625 472.164062 343.726562 473.082031 343.144531 C 473.195312 343.074219 473.167969 343.101562 473.289062 343.027344 L 473.695312 342.789062 C 473.984375 342.640625 474.371094 342.554688 474.777344 342.507812 Z M 483.5625 355.519531 C 483.851562 355.574219 488.433594 360.269531 488.652344 360.527344 C 489.078125 361.023438 489.542969 361.398438 489.953125 361.808594 C 494.261719 366.09375 494.066406 365.28125 492.699219 366.648438 L 490.890625 368.507812 C 490.210938 369.226562 486.585938 372.839844 486.152344 373.042969 L 483.441406 370.371094 C 482.898438 369.726562 479.222656 366.308594 479.136719 365.9375 C 478.722656 365.796875 478.566406 365.554688 478.300781 365.261719 L 470.75 357.691406 C 470.296875 357.308594 469.839844 356.804688 469.394531 356.359375 C 468.949219 355.914062 468.535156 355.394531 468.070312 355.03125 C 468.191406 354.710938 474.066406 348.898438 475.042969 347.914062 C 475.234375 347.71875 475.273438 347.632812 475.578125 347.582031 C 475.882812 347.597656 479.359375 351.207031 479.652344 351.496094 C 480.238281 352.074219 483.394531 355.042969 483.5625 355.519531 "/><path style=" stroke:none;fill-rule:evenodd;fill:#000000;fill-opacity:1;" d="M 426.566406 410.289062 C 427 409.945312 427.296875 410.375 427.582031 410.683594 L 430.664062 413.757812 C 431.371094 414.445312 430.875 414.621094 430.796875 414.710938 C 430.078125 415.519531 429.035156 416.402344 427.875 416.4375 C 427.09375 416.460938 426.3125 416.074219 425.742188 415.546875 C 425.082031 414.933594 424.859375 414.078125 424.902344 413.210938 C 424.90625 413.113281 424.96875 412.6875 424.996094 412.535156 C 425.144531 411.699219 425.925781 410.792969 426.566406 410.289062 Z M 420.011719 413.847656 C 420.222656 415.128906 420.335938 416.066406 420.917969 417.039062 C 421.34375 417.75 422.4375 418.980469 423.101562 419.496094 L 423.734375 419.945312 C 424.507812 420.402344 424.628906 420.492188 425.410156 420.742188 C 426.785156 421.183594 428.347656 421.308594 429.824219 420.878906 C 431.722656 420.332031 432.71875 419.53125 434.136719 418.058594 C 435.453125 416.695312 436.464844 416.117188 436.425781 414.171875 C 436.40625 413.0625 436.375 413.246094 435.9375 412.589844 C 435.039062 411.25 433.734375 410.285156 432.796875 409.355469 L 429.925781 406.296875 C 429.203125 405.621094 428.476562 404.828125 427.339844 404.769531 C 425.6875 404.679688 425.242188 404.984375 424.328125 405.875 C 422.78125 407.382812 421.539062 408.425781 420.601562 410.34375 C 420.328125 410.898438 420.339844 410.703125 420.273438 411.058594 L 420.011719 413.847656 "/><path style=" stroke:none;fill-rule:evenodd;fill:#f36262;fill-opacity:1;" d="M 442.589844 432.863281 C 442.183594 433.210938 441.957031 433.292969 441.148438 433.289062 C 439.851562 433.273438 439.285156 432.355469 438.625 431.699219 C 438.3125 431.386719 437.8125 431.074219 437.652344 430.714844 C 437.109375 430.511719 436.601562 429.792969 436.414062 429.230469 C 436.070312 428.210938 436.382812 426.996094 437.375 426.390625 C 437.605469 426.25 437.964844 426.027344 438.246094 425.984375 C 438.898438 425.890625 439.339844 425.976562 439.871094 426.265625 C 440.347656 426.527344 441.160156 427.417969 441.601562 427.859375 C 442.484375 428.726562 443.761719 429.796875 443.65625 431.113281 C 443.601562 431.769531 443.285156 432.550781 442.589844 432.863281 Z M 449.410156 423.457031 L 448.210938 424.796875 C 448.023438 424.964844 447.910156 425.140625 447.746094 425.304688 C 446.441406 426.644531 445.859375 427.355469 444.375 427.238281 C 443.03125 427.128906 441.484375 424.910156 443.128906 423.273438 C 443.914062 422.488281 445.039062 420.949219 446.21875 420.316406 C 448.535156 419.078125 450.527344 422.046875 449.410156 423.457031 Z M 420.011719 413.851562 L 420.273438 411.058594 C 420.339844 410.703125 420.328125 410.898438 420.601562 410.34375 C 421.539062 408.429688 422.78125 407.386719 424.328125 405.878906 C 425.242188 404.984375 425.6875 404.683594 427.339844 404.769531 C 428.476562 404.828125 429.199219 405.621094 429.925781 406.296875 L 432.796875 409.359375 C 433.734375 410.289062 435.039062 411.25 435.9375 412.589844 C 436.375 413.246094 436.40625 413.0625 436.425781 414.171875 C 436.464844 416.117188 435.449219 416.695312 434.136719 418.0625 C 432.71875 419.53125 431.722656 420.332031 429.824219 420.882812 C 428.347656 421.308594 426.785156 421.183594 425.410156 420.742188 C 424.628906 420.492188 424.507812 420.402344 423.730469 419.945312 L 423.101562 419.496094 C 422.4375 418.980469 421.34375 417.75 420.917969 417.039062 C 420.335938 416.070312 420.222656 415.128906 420.011719 413.851562 Z M 417.515625 398.523438 C 417.324219 398.527344 417.40625 398.484375 417.402344 398.589844 C 417.214844 399.027344 417.480469 398.667969 417.097656 398.980469 C 416.84375 399.183594 416.667969 399.207031 416.058594 399.769531 C 415.570312 400.222656 415.398438 400.433594 414.8125 400.867188 C 414.738281 400.816406 414.683594 400.785156 414.578125 400.703125 C 414.25 400.441406 414.261719 400.332031 413.816406 400.050781 C 414.191406 401.15625 414.742188 400.738281 414.980469 401.933594 C 415.382812 403.992188 413.613281 405.128906 412.148438 404.753906 C 411.753906 404.652344 411.109375 404.175781 410.835938 403.90625 C 410.492188 403.566406 410.878906 403.734375 410.378906 403.574219 C 410.480469 403.976562 410.769531 404.066406 410.941406 404.460938 C 409.933594 405.148438 405.269531 410.03125 404.894531 410.535156 C 404.878906 410.554688 404.863281 410.578125 404.847656 410.597656 C 404.835938 410.613281 404.816406 410.640625 404.800781 410.65625 L 403.378906 412.136719 C 403.128906 412.429688 403.046875 412.535156 402.691406 412.835938 L 400.070312 415.828125 C 400.148438 416.265625 400.070312 415.964844 400.234375 416.359375 C 400.40625 416.769531 400.296875 416.199219 400.410156 416.761719 L 401.179688 417.660156 C 402.441406 418.90625 404.476562 420.726562 405.488281 421.984375 C 405.738281 422.300781 405.953125 422.792969 406.003906 423.242188 C 406.082031 423.976562 405.882812 424.027344 405.730469 424.644531 C 405.628906 425.308594 405.675781 424.761719 405.511719 425.316406 C 405.765625 425.488281 407.847656 427.585938 407.972656 427.804688 L 408.476562 427.726562 C 408.710938 427.289062 409.964844 427.066406 410.628906 427.335938 C 410.703125 427.367188 411.335938 427.796875 411.464844 427.886719 C 411.792969 428.113281 411.9375 428.328125 412.1875 428.566406 L 420.757812 437.15625 C 421.21875 437.640625 421.667969 438.09375 422.164062 438.554688 L 431.453125 447.828125 C 432.359375 448.824219 431.933594 449.105469 434.386719 446.800781 C 435.125 446.105469 435.8125 445.625 436.519531 444.945312 C 437.878906 443.644531 439.339844 442.398438 440.667969 441 C 441.308594 440.328125 442.03125 439.628906 442.660156 439.003906 C 443.566406 438.097656 446.980469 434.5 447.53125 433.722656 L 453.09375 427.210938 C 453.175781 427.085938 453.3125 426.742188 453.429688 426.5625 L 454.789062 424.800781 C 456.335938 422.605469 456.8125 422.34375 458.265625 419.738281 C 458.648438 419.054688 459.257812 418.050781 459.496094 417.414062 L 461.226562 413.550781 C 461.3125 413.277344 461.292969 413.417969 461.289062 413.09375 L 451.542969 403.453125 C 451.257812 403.183594 451.023438 402.902344 450.746094 402.632812 L 448.316406 400.203125 C 446.359375 398.441406 443.796875 395.65625 441.828125 393.746094 C 441.265625 393.199219 440.8125 392.625 440.242188 392.089844 L 435.316406 387.253906 C 434.441406 387.296875 434.886719 386.964844 433.46875 387.628906 L 426.109375 391.699219 L 418.710938 397.78125 C 418.316406 398.144531 418.148438 398.410156 417.515625 398.523438 "/><path style=" stroke:none;fill-rule:evenodd;fill:#bce9fc;fill-opacity:1;" d="M 438.695312 375.929688 C 438.542969 376.082031 438.6875 375.988281 438.410156 376.144531 L 433.0625 378.015625 C 433.257812 378.496094 434.609375 379.742188 434.671875 379.761719 C 434.941406 379.84375 435.957031 379.328125 436.457031 379.347656 C 436.949219 378.941406 440.46875 377.867188 441.324219 377.546875 L 444.726562 376.335938 C 447.066406 375.804688 445.296875 375.683594 448.8125 375.683594 C 453.792969 375.683594 459.960938 375.539062 464.675781 375.707031 C 467.390625 375.800781 473.421875 375.558594 475.367188 375.757812 C 475.289062 376.109375 475.328125 375.972656 475.085938 376.230469 C 474.941406 376.386719 474.855469 376.453125 474.710938 376.609375 C 474.164062 377.207031 472.785156 378.65625 472.675781 379.203125 C 472.964844 379.074219 472.765625 379.210938 472.949219 379.074219 C 473.382812 378.75 473.035156 378.769531 473.527344 378.363281 L 475.042969 376.625 C 475.394531 376.253906 475.679688 376.15625 475.683594 375.660156 C 475.660156 375.644531 475.621094 375.597656 475.609375 375.621094 C 475.59375 375.644531 475.546875 375.59375 475.527344 375.585938 C 475.027344 375.441406 473.851562 375.507812 473.3125 375.507812 C 470.925781 375.507812 467.734375 375.585938 465.519531 375.484375 C 465.722656 375.335938 465.671875 375.433594 465.664062 375.125 C 466.222656 375.019531 466.691406 374.671875 467.191406 374.363281 L 469.371094 372.679688 C 469.640625 372.445312 469.949219 372.210938 470.210938 371.996094 C 470.363281 371.867188 470.433594 371.816406 470.605469 371.644531 C 470.753906 371.5 470.667969 371.582031 470.765625 371.484375 C 470.789062 371.460938 470.851562 371.394531 470.875 371.375 C 471.246094 371 471.929688 370.152344 472.34375 369.914062 C 472.554688 369.789062 472.324219 369.867188 472.765625 369.722656 L 477.371094 374.390625 C 477.386719 374.410156 477.410156 374.429688 477.421875 374.445312 C 477.445312 374.46875 477.507812 374.53125 477.53125 374.554688 C 478.457031 375.484375 478.878906 375.421875 477.988281 376.324219 L 476.984375 377.375 C 476.96875 377.390625 476.949219 377.414062 476.933594 377.429688 C 476.917969 377.445312 476.894531 377.464844 476.878906 377.480469 L 476.46875 377.824219 C 476.453125 377.839844 476.433594 377.863281 476.417969 377.878906 L 475.972656 378.429688 C 475.960938 378.449219 475.9375 378.472656 475.921875 378.488281 C 475.90625 378.5 475.886719 378.523438 475.871094 378.539062 C 475.855469 378.554688 475.832031 378.574219 475.816406 378.589844 C 475.296875 379.09375 475.460938 378.964844 475.253906 379.527344 C 475.71875 379.355469 475.324219 379.601562 475.988281 378.859375 L 479.140625 375.539062 C 480.367188 374.304688 480.683594 374.359375 480.171875 373.742188 L 475.5 369.136719 C 474.285156 368.015625 471.449219 364.9375 470.4375 364.050781 C 469.558594 363.273438 468.113281 361.605469 467.5 361.058594 C 467.285156 360.867188 467.285156 360.820312 466.941406 360.78125 C 466.734375 360.867188 464.582031 363.097656 464.242188 363.445312 C 463.535156 364.164062 461.359375 366.203125 460.71875 366.601562 L 458.21875 368.214844 C 457.960938 368.386719 458.117188 368.285156 457.8125 368.441406 L 440.839844 375.320312 C 440.394531 375.457031 439.007812 375.96875 438.695312 375.929688 "/><path style=" stroke:none;fill-rule:evenodd;fill:#b9e6fa;fill-opacity:1;" d="M 348.261719 472.382812 C 348.253906 472.121094 347.867188 470.484375 348.214844 469.648438 C 348.265625 469.628906 348.222656 469.496094 348.648438 469.855469 C 348.734375 469.929688 348.78125 469.992188 348.875 470.074219 C 349.167969 470.320312 348.882812 470.171875 349.25 470.320312 C 348.804688 469.269531 348.117188 469.433594 347.644531 468.527344 C 347.457031 468.472656 346.25 467.214844 346.019531 466.992188 L 344.523438 465.148438 C 343.714844 463.898438 343.871094 462.300781 344.054688 460.910156 L 344.882812 459.074219 C 346.101562 457.617188 348.023438 456.757812 348.832031 456.121094 L 351.007812 454.625 C 351.976562 453.828125 356.113281 451.328125 357.941406 449.90625 L 359.925781 448.539062 C 360.136719 448.375 360.179688 448.320312 360.335938 448.195312 L 367.332031 442.667969 L 369.84375 440.210938 C 369.859375 440.195312 369.878906 440.167969 369.894531 440.152344 L 373.117188 436.910156 C 375.675781 434.277344 377.675781 431.609375 380.015625 428.8125 C 380.277344 428.5 380.371094 428.203125 380.667969 427.839844 L 383.582031 424.167969 C 384.375 423.257812 384.074219 423.242188 385.328125 421.921875 L 386.082031 420.851562 C 386.71875 420.042969 388.585938 417.242188 389.296875 416.605469 C 389.613281 416.324219 389.460938 416.480469 389.679688 416.144531 C 389.796875 415.96875 389.910156 415.8125 390.046875 415.636719 C 391.242188 414.0625 391.125 414.601562 390.546875 413.5625 C 390.144531 413.28125 390.136719 412.988281 389.449219 412.742188 C 388.789062 413.089844 387.441406 415.429688 386.6875 416.070312 C 386.671875 416.085938 386.644531 416.101562 386.625 416.117188 L 386.355469 416.449219 C 385.992188 417.113281 385.835938 417.226562 385.386719 417.769531 L 380.054688 424.855469 C 379.753906 425.226562 379.578125 425.519531 379.28125 425.910156 L 373.757812 432.804688 L 367.015625 439.667969 C 367 439.679688 366.976562 439.699219 366.957031 439.714844 L 366.679688 439.96875 C 365.628906 441.113281 365.265625 441.261719 364.207031 442.246094 C 363.476562 442.929688 360.875 444.738281 359.855469 445.550781 L 356.789062 447.789062 C 356.457031 448.042969 356.09375 448.339844 355.789062 448.613281 C 355.222656 449.121094 351.621094 451.285156 350.453125 452.132812 C 350.09375 452.394531 349.757812 452.679688 349.398438 452.90625 L 347.273438 454.34375 C 345.671875 455.4375 343.386719 456.820312 342.585938 458.511719 C 342.484375 458.730469 342.410156 459.003906 342.308594 459.226562 C 341.671875 460.65625 341.972656 460.441406 341.730469 461.246094 C 341.527344 461.914062 341.570312 462.121094 341.585938 462.960938 C 341.605469 463.984375 342.3125 466.066406 342.949219 466.933594 C 343.730469 468 345.285156 469.882812 346.378906 470.628906 C 346.941406 471.011719 347.582031 471.917969 348.261719 472.382812 "/><path style=" stroke:none;fill-rule:evenodd;fill:#f16161;fill-opacity:1;" d="M 479.140625 365.9375 C 479.226562 366.308594 482.898438 369.722656 483.441406 370.371094 L 486.15625 373.042969 C 486.585938 372.839844 490.210938 369.226562 490.890625 368.507812 L 492.699219 366.648438 C 494.066406 365.28125 494.261719 366.09375 489.953125 361.808594 C 489.542969 361.398438 489.078125 361.023438 488.652344 360.527344 C 488.433594 360.269531 483.851562 355.574219 483.5625 355.519531 C 483.226562 355.441406 483.097656 355.332031 482.699219 354.980469 L 482.148438 355.433594 C 481.410156 356.050781 481.335938 356.253906 480.636719 356.957031 L 478.582031 359.003906 C 478.566406 359.019531 478.542969 359.042969 478.527344 359.058594 L 476.320312 361.277344 C 476.214844 361.390625 476.191406 361.410156 476.109375 361.496094 L 475.621094 361.855469 C 475.847656 362.902344 475.914062 362.355469 476.527344 362.9375 L 478.351562 364.769531 C 478.609375 365.082031 478.496094 365.078125 478.738281 365.363281 L 479.140625 365.9375 "/><path style=" stroke:none;fill-rule:evenodd;fill:#212022;fill-opacity:1;" d="M 426.566406 410.289062 C 425.925781 410.792969 425.144531 411.699219 424.996094 412.535156 C 424.96875 412.6875 424.90625 413.117188 424.902344 413.210938 C 424.859375 414.082031 425.078125 414.9375 425.742188 415.546875 C 426.3125 416.074219 427.09375 416.460938 427.871094 416.4375 C 429.035156 416.40625 430.078125 415.519531 430.792969 414.710938 C 430.875 414.621094 431.367188 414.445312 430.664062 413.757812 L 427.582031 410.683594 C 427.296875 410.375 427 409.945312 426.566406 410.289062 "/><path style=" stroke:none;fill-rule:evenodd;fill:#eab9b9;fill-opacity:1;" d="M 437.652344 430.710938 C 437.5625 430.320312 437.441406 430.332031 437.132812 429.960938 C 435.054688 427.460938 438.457031 425.160156 440.25 426.851562 C 440.273438 426.871094 440.417969 427.066406 440.480469 427.136719 L 441.421875 428.046875 C 441.855469 428.523438 442.265625 428.828125 442.660156 429.285156 C 443.125 429.832031 443.355469 430.054688 443.347656 431.011719 C 443.332031 432.289062 442.816406 432.054688 442.589844 432.863281 C 443.285156 432.550781 443.601562 431.769531 443.65625 431.113281 C 443.761719 429.796875 442.484375 428.726562 441.601562 427.855469 C 441.160156 427.417969 440.347656 426.523438 439.871094 426.265625 C 439.339844 425.976562 438.898438 425.886719 438.246094 425.984375 C 437.964844 426.027344 437.605469 426.25 437.378906 426.390625 C 436.382812 426.996094 436.070312 428.210938 436.414062 429.230469 C 436.601562 429.792969 437.109375 430.511719 437.652344 430.710938 "/></g></svg>